<?xml version="1.0" encoding="utf-8"?>
<!-- Generator: Adobe Illustrator 16.0.0, SVG Export Plug-In . SVG Version: 6.00 Build 0)  -->
<!DOCTYPE svg PUBLIC "-//W3C//DTD SVG 1.1//EN" "http://www.w3.org/Graphics/SVG/1.1/DTD/svg11.dtd">
<svg version="1.1" id="Layer_1" xmlns="http://www.w3.org/2000/svg" xmlns:xlink="http://www.w3.org/1999/xlink" x="0px" y="0px"
	 width="36px" height="36px" viewBox="0 0 36 36" enable-background="new 0 0 36 36" xml:space="preserve">
<path fill-rule="evenodd" clip-rule="evenodd" fill="#F6931A" d="M36.046,18c-0.031,10.15-8.286,18.134-18.234,17.998
	C7.694,35.857,0.016,27.711,0,18.056C-0.018,7.517,8.628-0.381,18.604-0.046C28.608,0.291,36.083,8.506,36.046,18z M22.028,10.778
	c0.254-1.025,0.517-2.09,0.786-3.176c-0.678-0.169-1.314-0.327-1.976-0.491c-0.267,1.064-0.526,2.097-0.793,3.16
	c-0.539-0.128-1.055-0.251-1.576-0.376c0.267-1.085,0.523-2.125,0.783-3.183c-0.69-0.171-1.316-0.326-1.97-0.488
	c-0.276,1.096-0.545,2.162-0.82,3.252c-1.336-0.332-2.64-0.657-3.981-0.991c-0.178,0.712-0.349,1.396-0.524,2.1
	c0.52,0.135,1.007,0.247,1.486,0.39c0.717,0.214,0.98,0.689,0.8,1.411c-0.701,2.809-1.403,5.615-2.106,8.423
	c-0.148,0.594-0.471,0.786-1.062,0.645c-0.438-0.106-0.875-0.218-1.332-0.33c-0.328,0.759-0.646,1.496-0.976,2.26
	c1.35,0.341,2.652,0.671,3.976,1.006c-0.274,1.12-0.539,2.196-0.808,3.295c0.684,0.169,1.31,0.323,1.966,0.485
	c0.28-1.106,0.548-2.169,0.821-3.249c0.546,0.145,1.041,0.275,1.565,0.415c-0.268,1.086-0.528,2.14-0.799,3.236
	c0.677,0.165,1.319,0.322,1.975,0.482c0.282-1.124,0.548-2.179,0.817-3.246c0.637,0.074,1.242,0.161,1.85,0.211
	c1.192,0.102,2.367,0.049,3.419-0.61c1.167-0.732,1.678-1.888,1.94-3.175c0.279-1.366-0.067-2.53-1.22-3.391
	c-0.237-0.177-0.484-0.338-0.775-0.54c0.699-0.207,1.274-0.496,1.696-1.022c1.401-1.744,1.007-4.171-0.9-5.333
	C23.584,11.517,22.817,11.182,22.028,10.778z"/>
<path fill-rule="evenodd" clip-rule="evenodd" fill="#FEFEFD" d="M22.028,10.778c0.789,0.404,1.556,0.739,2.264,1.17
	c1.907,1.162,2.302,3.589,0.9,5.333c-0.422,0.526-0.997,0.815-1.696,1.022c0.291,0.202,0.538,0.363,0.775,0.54
	c1.152,0.86,1.499,2.024,1.22,3.391c-0.263,1.287-0.773,2.442-1.94,3.175c-1.052,0.659-2.227,0.712-3.419,0.61
	c-0.608-0.05-1.213-0.137-1.85-0.211c-0.269,1.067-0.535,2.122-0.817,3.246c-0.655-0.16-1.298-0.317-1.975-0.482
	c0.271-1.097,0.531-2.15,0.799-3.236c-0.525-0.14-1.02-0.271-1.565-0.415c-0.273,1.08-0.542,2.143-0.821,3.249
	c-0.657-0.162-1.282-0.316-1.966-0.485c0.27-1.099,0.534-2.175,0.808-3.295c-1.323-0.335-2.625-0.665-3.976-1.006
	c0.33-0.764,0.648-1.501,0.976-2.26c0.456,0.112,0.893,0.224,1.332,0.33c0.591,0.142,0.913-0.051,1.062-0.645
	c0.703-2.808,1.405-5.615,2.106-8.423c0.18-0.722-0.083-1.197-0.8-1.411c-0.479-0.143-0.967-0.255-1.486-0.39
	c0.176-0.704,0.346-1.387,0.524-2.1c1.341,0.334,2.646,0.659,3.981,0.991c0.275-1.091,0.544-2.156,0.82-3.252
	c0.653,0.162,1.279,0.317,1.97,0.488c-0.26,1.058-0.516,2.098-0.783,3.183c0.521,0.125,1.037,0.248,1.576,0.376
	c0.267-1.063,0.526-2.096,0.793-3.16c0.661,0.164,1.298,0.322,1.976,0.491C22.545,8.688,22.282,9.752,22.028,10.778z M15.364,22.533
	c0.427,0.11,0.825,0.225,1.228,0.315c1.091,0.244,2.187,0.476,3.312,0.258c0.787-0.152,1.348-0.577,1.544-1.387
	c0.191-0.789-0.049-1.468-0.691-1.919c-0.546-0.382-1.155-0.701-1.779-0.93c-0.809-0.297-1.661-0.476-2.522-0.713
	C16.081,19.658,15.726,21.081,15.364,22.533z M16.948,16.181c1.152,0.316,2.242,0.602,3.39,0.514
	c0.888-0.067,1.472-0.503,1.705-1.274c0.23-0.76-0.023-1.464-0.746-1.993c-0.687-0.502-1.491-0.733-2.301-0.94
	c-0.35-0.089-0.704-0.159-1.069-0.24C17.595,13.581,17.276,14.863,16.948,16.181z"/>
<path fill-rule="evenodd" clip-rule="evenodd" fill="#F6931A" d="M15.364,22.533c0.362-1.452,0.717-2.875,1.091-4.376
	c0.861,0.237,1.713,0.417,2.522,0.713c0.624,0.229,1.233,0.548,1.779,0.93c0.643,0.451,0.883,1.13,0.691,1.919
	c-0.196,0.81-0.757,1.234-1.544,1.387c-1.125,0.218-2.22-0.014-3.312-0.258C16.188,22.758,15.791,22.644,15.364,22.533z"/>
<path fill-rule="evenodd" clip-rule="evenodd" fill="#F6931A" d="M16.948,16.181c0.329-1.318,0.647-2.6,0.979-3.934
	c0.365,0.082,0.719,0.151,1.069,0.24c0.81,0.207,1.614,0.438,2.301,0.94c0.723,0.529,0.977,1.232,0.746,1.993
	c-0.233,0.771-0.817,1.207-1.705,1.274C19.189,16.783,18.1,16.497,16.948,16.181z"/>
</svg>
