<?xml version="1.0" encoding="utf-8"?>
<!-- Generator: Adobe Illustrator 16.0.0, SVG Export Plug-In . SVG Version: 6.00 Build 0)  -->
<!DOCTYPE svg PUBLIC "-//W3C//DTD SVG 1.1//EN" "http://www.w3.org/Graphics/SVG/1.1/DTD/svg11.dtd">
<svg version="1.1" id="Layer_1" xmlns="http://www.w3.org/2000/svg" xmlns:xlink="http://www.w3.org/1999/xlink" x="0px" y="0px"
	 width="36px" height="36px" viewBox="158.416 158.416 36 36" enable-background="new 158.416 158.416 36 36" xml:space="preserve">
<path fill="#201324" d="M176.417,158.411c9.942,0,18.004,8.063,18.004,18.002c0,9.941-8.062,18.003-18.004,18.003
	c-9.938,0-18.001-8.062-18.001-18.003C158.416,166.475,166.479,158.411,176.417,158.411z"/>
<g>
	<path fill="#FFFFFF" d="M176.419,161.013c0.049,0.068,0.091,0.117,0.125,0.168c0.292,0.488,0.585,0.977,0.883,1.467
		c0.732,1.209,1.468,2.42,2.198,3.635c0.746,1.24,1.49,2.488,2.241,3.73c0.949,1.578,1.898,3.152,2.851,4.729
		c0.4,0.66,0.802,1.33,1.202,1.998c0.127,0.207,0.123,0.23-0.092,0.355c-1.176,0.695-2.35,1.389-3.527,2.084
		c-1.318,0.777-2.637,1.557-3.954,2.338c-0.585,0.346-1.173,0.689-1.754,1.041c-0.124,0.076-0.223,0.082-0.351,0.006
		c-1.054-0.629-2.11-1.248-3.166-1.875c-1.122-0.662-2.242-1.33-3.366-1.994c-0.897-0.531-1.796-1.059-2.695-1.586
		c-0.225-0.133-0.23-0.133-0.094-0.361c0.78-1.303,1.57-2.605,2.352-3.906c0.587-0.98,1.17-1.959,1.761-2.938
		c0.612-1.008,1.23-2.018,1.842-3.033c0.859-1.43,1.717-2.857,2.576-4.287c0.29-0.486,0.582-0.969,0.871-1.451
		C176.341,161.099,176.373,161.065,176.419,161.013z"/>
	<path fill="#FFFFFF" d="M186,178.327c-3.183,4.482-6.365,8.965-9.579,13.492c-3.199-4.51-6.378-8.992-9.561-13.475
		c0.011-0.018,0.024-0.033,0.04-0.049c0.217,0.119,0.428,0.244,0.641,0.371c0.961,0.564,1.926,1.129,2.884,1.693
		c0.993,0.592,1.979,1.184,2.973,1.77c0.958,0.568,1.923,1.135,2.89,1.693c0.056,0.037,0.165,0.033,0.225,0
		c1.253-0.734,2.503-1.479,3.752-2.217c1.694-0.998,3.392-1.996,5.084-2.992c0.147-0.088,0.294-0.184,0.441-0.268
		c0.05-0.031,0.102-0.049,0.157-0.074C185.964,178.292,185.982,178.308,186,178.327z"/>
</g>
</svg>
