<?xml version="1.0" encoding="utf-8"?>
<!-- Generator: Adobe Illustrator 16.0.0, SVG Export Plug-In . SVG Version: 6.00 Build 0)  -->
<!DOCTYPE svg PUBLIC "-//W3C//DTD SVG 1.1//EN" "http://www.w3.org/Graphics/SVG/1.1/DTD/svg11.dtd">
<svg version="1.1" id="Layer_1" xmlns="http://www.w3.org/2000/svg" xmlns:xlink="http://www.w3.org/1999/xlink" x="0px" y="0px"
	 width="36px" height="36px" viewBox="0 0 36 36" enable-background="new 0 0 36 36" xml:space="preserve">
<g>
	<path fill-rule="evenodd" clip-rule="evenodd" fill="#8FA408" d="M18.846,22.161c0-1.512,0-3.024,0-4.536
		c0-0.067-0.002-0.134-0.002-0.202v0.002c0.067,0,0.134,0.002,0.204,0.002c5.151-0.002,10.302-0.002,15.451-0.002
		c0.044,0,0.086-0.002,0.13,0c0.161,0.002,0.17,0.009,0.175,0.166c0.005,0.148,0.005,0.298,0.005,0.447c0,0.153,0,0.308,0,0.465
		c-3.911,0-7.794,0-11.674,0c-0.272-0.509-0.645-0.718-1.098-0.622c-0.427,0.091-0.777,0.479-0.806,0.895
		c-0.025,0.422,0.263,0.837,0.686,0.988c0.207,0.07,0.42,0.066,0.622,0c0.3-0.097,0.482-0.319,0.592-0.599c3.886,0,7.755,0,11.648,0
		c-0.047,0.416-0.087,0.821-0.131,1.226c-4.49,0-8.96,0-13.423,0c-0.261-0.518-0.634-0.722-1.11-0.619
		c-0.416,0.087-0.748,0.482-0.79,0.888c-0.053,0.5,0.354,0.869,0.701,0.987c0.208,0.072,0.418,0.061,0.623-0.011
		c0.291-0.097,0.46-0.318,0.576-0.596c0.07,0,0.135,0,0.194,0c3.736,0,7.471,0,11.205,0c0.067,0,0.135,0.007,0.202,0.009
		c-0.058,0.072-0.102,0.159-0.17,0.211c-0.411,0.309-0.82,0.619-1.239,0.914c-0.584,0.412-1.192,0.779-1.821,1.112
		c-0.687,0.359-1.377,0.71-2.102,0.995c-0.059,0.026-0.13,0.026-0.195,0.036c0.116-0.331,0.307-0.619,0.516-0.9
		c0.047-0.063,0.104-0.124,0.146-0.19c0.101-0.176,0.06-0.397-0.093-0.526c-0.152-0.127-0.377-0.129-0.53-0.002
		c-0.054,0.046-0.096,0.102-0.14,0.152c-0.259,0.322-0.475,0.671-0.635,1.051c-0.128,0.308-0.229,0.627-0.342,0.943
		c-0.06,0.009-0.12,0.016-0.18,0.033c-0.184,0.053-0.365,0.112-0.548,0.165c-0.081,0.025-0.169,0.054-0.24-0.021
		c0.015-0.019,0.023-0.041,0.042-0.059c0.759-0.782,1.364-1.672,1.851-2.646c0.023-0.046,0.039-0.095,0.068-0.16
		c-0.092,0-0.151,0-0.215,0c-0.489,0-0.979,0-1.471,0c-2.228,0-4.458,0-6.687,0.002L18.846,22.161z"/>
	<path fill-rule="evenodd" clip-rule="evenodd" fill="#C6D90C" d="M29.695,12.788c-0.066,0.002-0.135,0.009-0.203,0.009
		c-2.428,0-4.855,0-7.28,0.001c-0.145,0.001-0.26-0.033-0.382-0.112c-1.231-0.818-2.588-1.203-4.065-1.122
		c-1.697,0.093-3.143,0.751-4.352,1.937c-0.496,0.486-0.892,1.043-1.211,1.658c-0.029,0.055-0.063,0.105-0.095,0.158
		c-0.123-0.122-0.247-0.246-0.428-0.278c0.01-0.031,0.017-0.061,0.031-0.088c0.526-1.052,1.263-1.93,2.211-2.623
		c1.14-0.835,2.416-1.301,3.83-1.401c0.877-0.062,1.733,0.043,2.578,0.284c0.101,0.029,0.16,0.079,0.209,0.18
		c0.069,0.142,0.155,0.295,0.275,0.386c0.179,0.132,0.404,0.185,0.636,0.157c0.376-0.044,0.674-0.303,0.771-0.662
		c0.088-0.326-0.047-0.724-0.314-0.934c-0.289-0.226-0.689-0.256-1.012-0.057c-0.094,0.056-0.165,0.06-0.261,0.029
		c-0.571-0.18-1.157-0.291-1.753-0.331c-1.011-0.068-2.008,0.02-2.983,0.317c-0.063,0.021-0.129,0.033-0.206,0.053
		c-0.135-0.619-0.264-1.224-0.396-1.83c-0.132-0.611-0.268-1.224-0.401-1.836C14.762,6.077,14.63,5.471,14.5,4.864
		c-0.132-0.612-0.259-1.226-0.397-1.837c-0.136-0.601-0.25-1.208-0.404-1.811c-0.085,0.025-0.144,0.045-0.204,0.061
		c-2.063,0.57-3.956,1.491-5.676,2.766C7.566,4.231,7.317,4.426,7.064,4.617C6.981,4.585,6.989,4.513,6.989,4.445
		C6.987,4.291,6.987,4.136,6.985,3.982c0.266-0.204,0.525-0.417,0.797-0.61c1.775-1.255,3.716-2.16,5.822-2.708
		c0.211-0.056,0.428-0.087,0.642-0.131c0.381-0.078,0.759-0.176,1.143-0.231c0.522-0.076,1.048-0.131,1.572-0.17
		c0.421-0.031,0.843-0.035,1.267-0.035c1.854-0.004,3.659,0.293,5.419,0.863c2.206,0.715,4.195,1.824,5.973,3.311
		c0.095,0.078,0.177,0.167,0.273,0.246c0.726,0.616,1.388,1.293,1.989,2.026c0.009,0.009,0.011,0.023,0.015,0.034
		c-0.101,0.019-0.099,0.102-0.116,0.179c-0.031,0.13,0.002,0.283-0.12,0.385c-0.046-0.051-0.094-0.1-0.137-0.15
		c-0.351-0.388-0.687-0.789-1.051-1.162c-1.197-1.224-2.553-2.244-4.057-3.064c-2.498-1.359-5.169-2.051-8.008-2.109
		c-0.871-0.018-1.738,0.041-2.601,0.15c-0.109,0.014-0.215,0.036-0.34,0.057c0.568,2.622,1.131,5.227,1.694,7.825
		c0.037,0.006,0.056,0.013,0.074,0.013c0.042,0,0.087-0.004,0.131-0.007c1.042-0.088,2.069,0.003,3.083,0.263
		c0.874,0.226,1.708,0.555,2.471,1.046c0.291,0.189,0.589,0.371,0.868,0.576c0.556,0.413,1.048,0.891,1.49,1.425
		c0.084,0.104,0.17,0.14,0.299,0.138c1.411-0.004,2.819-0.002,4.231-0.002c0.074,0,0.149,0.007,0.223,0.011
		c-0.057,0.105-0.11,0.214-0.172,0.318C29.798,12.571,29.695,12.653,29.695,12.788z"/>
	<path fill-rule="evenodd" clip-rule="evenodd" fill="#637405" d="M35.919,19.933c-0.022,0.113-0.044,0.228-0.067,0.343
		c-0.001,0.017-0.005,0.037-0.005,0.055c-0.008,0.541-0.136,1.065-0.253,1.594c-0.078,0.354-0.188,0.699-0.278,1.048
		c-0.338,1.284-0.864,2.493-1.497,3.654c-0.418,0.772-0.899,1.506-1.43,2.202c-0.086,0.113-0.187,0.213-0.274,0.325
		c-1.086,1.416-2.39,2.604-3.857,3.613c-1.931,1.333-4.047,2.247-6.342,2.745c-1.695,0.365-3.409,0.496-5.134,0.352
		c-4.468-0.361-8.286-2.144-11.449-5.319c-1.219-1.223-2.217-2.606-3.032-4.128c-0.89-1.664-1.495-3.429-1.823-5.285
		c-0.235-1.337-0.326-2.687-0.245-4.045c0.013-0.21,0.032-0.422,0.049-0.632c0.067-0.004,0.113,0.017,0.151,0.079
		c0.068,0.115,0.143,0.228,0.223,0.334c0.035,0.045,0.09,0.074,0.135,0.111c-0.031,0.693-0.037,1.388,0.007,2.083
		c0.043,0.665,0.125,1.329,0.238,1.992c0.003,0.019,0.021,0.039,0.035,0.063c0.434-0.137,0.86-0.263,1.286-0.394
		c0.86-0.262,1.719-0.522,2.579-0.785c0.021,0.043,0.034,0.093,0.064,0.124c0.064,0.066,0.137,0.122,0.206,0.186
		c0.082,0.075,0.158,0.155,0.242,0.229c0.23,0.2,0.467,0.396,0.696,0.598c0.043,0.042,0.066,0.103,0.098,0.151
		c-0.047,0.018-0.094,0.032-0.141,0.047c-0.741,0.226-1.48,0.448-2.222,0.673c-0.308,0.09-0.621,0.165-0.928,0.258
		c-0.45,0.137-0.897,0.277-1.345,0.419c-0.063,0.02-0.123,0.051-0.191,0.076c0.04,0.142,0.077,0.272,0.117,0.406
		c0.621,2,1.565,3.836,2.849,5.488c1.89,2.439,4.259,4.256,7.106,5.442c1.726,0.721,3.528,1.131,5.393,1.271
		c0.825,0.061,1.65,0.057,2.476,0.005c0.188-0.012,0.376-0.059,0.58-0.092c-0.456-2.925-0.911-5.839-1.367-8.759
		c0.212-0.019,0.397-0.031,0.58-0.052c0.712-0.074,1.403-0.241,2.065-0.5c0.136-0.053,0.251-0.053,0.386-0.016
		c0.164,0.043,0.332,0.047,0.5-0.011c0.258-0.095,0.427-0.279,0.549-0.517c0.139-0.019,0.279-0.034,0.418-0.058
		c0.275-0.05,0.55-0.106,0.827-0.159c0.059-0.015,0.125-0.015,0.137,0.073c-0.173,0.126-0.347,0.251-0.519,0.381
		c-0.481,0.362-1.006,0.651-1.549,0.91c-0.574,0.273-1.177,0.464-1.796,0.604c-0.046,0.01-0.092,0.029-0.13,0.042
		c0.136,0.662,0.285,1.306,0.398,1.958c0.114,0.65,0.259,1.295,0.355,1.947c0.095,0.654,0.252,1.298,0.363,1.945
		c0.111,0.653,0.233,1.306,0.358,1.973c0.077-0.002,0.153,0.004,0.221-0.011c0.738-0.157,1.46-0.355,2.168-0.613
		c4.021-1.458,7.11-4.037,9.269-7.731c0.963-1.645,1.616-3.411,1.976-5.288c0.061-0.323,0.117-0.647,0.175-0.973
		c0.169-0.016,0.263-0.148,0.35-0.266C35.739,20.008,35.813,19.957,35.919,19.933z"/>
	<path fill-rule="evenodd" clip-rule="evenodd" fill="#8FA408" d="M24.03,25.221c-0.012-0.088-0.078-0.088-0.137-0.073
		c-0.277,0.053-0.552,0.109-0.827,0.159c-0.139,0.023-0.279,0.039-0.418,0.058c0.008-0.031,0.012-0.06,0.02-0.091
		c0.109-0.481-0.16-0.945-0.618-1.057c-0.467-0.116-0.919,0.152-1.045,0.632c-0.026,0.108-0.088,0.15-0.181,0.183
		c-1.125,0.424-2.283,0.566-3.477,0.416c-1.492-0.185-2.806-0.771-3.929-1.767c-2.023-1.792-2.876-4.453-2.289-7.09
		c0.12-0.54,0.289-1.063,0.551-1.552c0.181,0.033,0.305,0.157,0.428,0.278c-0.269,0.593-0.468,1.208-0.566,1.853
		c-0.167,1.092-0.09,2.169,0.291,3.209c0.778,2.129,2.253,3.554,4.427,4.206c1.658,0.494,3.279,0.329,4.833-0.433
		c0.055-0.025,0.108-0.057,0.158-0.088c-0.002-0.013-0.004-0.02-0.006-0.025c-0.002-0.002-0.007-0.011-0.011-0.011
		c-0.781-0.003-1.564-0.006-2.348-0.009c-0.006,0-0.01-0.002-0.041-0.015c0-0.387,0-0.783,0-1.177l-0.002,0.002
		c0.071-0.004,0.146-0.018,0.219-0.018c1.621,0,3.241,0,4.861,0c0.658,0,1.316,0,1.975,0c0.064,0,0.128,0.01,0.192,0.01
		c-0.006,0.039-0.004,0.053-0.012,0.063c-0.023,0.043-0.047,0.084-0.076,0.127c-0.427,0.674-0.933,1.285-1.519,1.827
		C24.339,24.973,24.181,25.094,24.03,25.221z"/>
	<path fill-rule="evenodd" clip-rule="evenodd" fill="#C6D90C" d="M18.844,16.791c0-0.371,0-0.743,0-1.125
		c-0.052-0.007-0.096-0.016-0.135-0.016c-0.669-0.001-1.341,0-2.011-0.001c-0.094,0-0.166,0.01-0.205,0.112
		c-0.117,0.309-0.354,0.466-0.673,0.508c-0.361,0.049-0.663-0.072-0.896-0.347c-0.25-0.295-0.319-0.632-0.152-0.986
		c0.17-0.366,0.467-0.583,0.874-0.599c0.392-0.013,0.693,0.16,0.876,0.518c0.01,0.021,0.02,0.044,0.031,0.068
		c0.009,0.015,0.018,0.032,0.04,0.069c0.054,0,0.12,0,0.187,0c0.621,0,1.241-0.001,1.861,0c0.068,0,0.135,0.006,0.203,0.01V15
		c0,0.208,0,0.418,0,0.645c0.098,0,0.169,0,0.242,0c2.601-0.002,5.2-0.002,7.797,0c0.08,0,0.162,0.007,0.239,0.01
		c-0.064,0.071-0.121,0.158-0.201,0.207c-0.393,0.243-0.793,0.474-1.192,0.711c-0.087,0.052-0.198,0.079-0.214,0.207
		c-0.055,0.003-0.111,0.01-0.166,0.01c-2.168,0-4.339,0-6.505,0V16.791z M16.129,15.309c0-0.27-0.198-0.473-0.464-0.477
		c-0.254-0.003-0.475,0.212-0.479,0.468c-0.005,0.266,0.214,0.486,0.479,0.483C15.929,15.781,16.127,15.578,16.129,15.309z"/>
	<path fill-rule="evenodd" clip-rule="evenodd" fill="#8FA408" d="M35.919,19.933c-0.106,0.024-0.18,0.075-0.249,0.167
		c-0.087,0.117-0.181,0.25-0.35,0.266c0.033-0.369,0.075-0.736,0.104-1.11c0.094-1.283,0.039-2.565-0.147-3.841
		c-0.022-0.138-0.048-0.275-0.07-0.421c-0.093,0-0.167,0-0.242,0c-2.453,0-4.904,0-7.355-0.001c-0.113,0-0.223-0.005-0.335-0.008
		c0.026-0.05,0.044-0.114,0.085-0.149c0.246-0.21,0.498-0.409,0.749-0.614c0.059-0.048,0.106-0.101,0.097-0.186
		c0.472-0.005,0.944-0.01,1.415-0.012c1.93-0.008,3.858-0.016,5.79-0.022c0.05,0,0.098,0,0.163,0c0.029,0.11,0.06,0.215,0.079,0.322
		c0.034,0.206,0.03,0.422,0.092,0.619c0.058,0.184,0.083,0.373,0.112,0.56c0.167,1.158,0.212,2.32,0.146,3.49
		C35.984,19.304,35.944,19.617,35.919,19.933z"/>
	<path fill-rule="evenodd" clip-rule="evenodd" fill="#C6D90C" d="M28.204,14.034c0.01,0.085-0.038,0.138-0.097,0.186
		c-0.251,0.206-0.503,0.404-0.749,0.614c-0.041,0.035-0.059,0.1-0.085,0.149c-0.08,0.004-0.162,0.009-0.242,0.009
		c-2.649,0.002-5.298,0-7.947,0.002c-0.079,0-0.16,0.004-0.24,0.005v0.003c0-0.311,0-0.622,0-0.955
		c0.082-0.002,0.154-0.007,0.225-0.007c2.588-0.005,5.174-0.011,7.759-0.014C27.285,14.027,27.745,14.031,28.204,14.034z"/>
	<path fill-rule="evenodd" clip-rule="evenodd" fill="#8FA408" d="M0.792,16.978c-0.045-0.037-0.1-0.066-0.135-0.111
		c-0.081-0.106-0.155-0.22-0.223-0.334c-0.038-0.062-0.084-0.083-0.151-0.079c0.026-0.279,0.042-0.555,0.078-0.832
		c0.146-1.132,0.407-2.24,0.771-3.322c0.576-1.71,1.393-3.298,2.449-4.762C4.341,6.482,5.205,5.52,6.177,4.656
		C6.44,4.423,6.716,4.207,6.985,3.982c0.002,0.154,0.002,0.309,0.004,0.463c0,0.067-0.007,0.14,0.076,0.172
		c-0.335,0.304-0.679,0.6-1.004,0.915c-1.933,1.868-3.356,4.07-4.271,6.596c-0.436,1.207-0.733,2.447-0.883,3.722
		C0.863,16.224,0.83,16.601,0.792,16.978z"/>
	<path fill-rule="evenodd" clip-rule="evenodd" fill="#8FA408" d="M29.695,12.788c0-0.135,0.103-0.216,0.164-0.321
		c0.062-0.104,0.115-0.212,0.172-0.318c0.075-0.003,0.148-0.007,0.221-0.007c1.325-0.002,2.646-0.002,3.97-0.002
		c0.068,0,0.137,0,0.224,0c-0.02-0.067-0.031-0.112-0.049-0.157c-0.586-1.569-1.375-3.026-2.38-4.367
		c-0.12-0.159-0.238-0.317-0.356-0.476c0.122-0.102,0.089-0.254,0.12-0.385c0.018-0.077,0.016-0.16,0.116-0.179
		c0.176,0.214,0.354,0.426,0.521,0.646c0.452,0.592,0.861,1.214,1.233,1.86c0.644,1.121,1.163,2.299,1.555,3.533
		c0.017,0.052,0.025,0.106,0.044,0.17c-0.047,0.004-0.084,0.012-0.118,0.012c-1.78-0.002-3.561-0.002-5.344-0.002
		C29.757,12.794,29.728,12.79,29.695,12.788z"/>
	<path fill-rule="evenodd" clip-rule="evenodd" fill="#C6D90C" d="M18.844,17.423c-0.081,0-0.161,0-0.259,0
		c-0.115,0.296-0.305,0.52-0.619,0.614c-0.201,0.058-0.401,0.061-0.602-0.012c-0.415-0.146-0.699-0.548-0.68-0.966
		c0.02-0.407,0.36-0.805,0.769-0.902c0.474-0.113,0.831,0.081,1.147,0.633c0.074,0,0.158,0,0.244,0v-0.002c0,0.212,0,0.424,0,0.636
		V17.423z M18.134,17.107c0-0.26-0.212-0.471-0.471-0.473c-0.263-0.003-0.477,0.203-0.484,0.463
		c-0.006,0.262,0.215,0.481,0.484,0.479C17.922,17.577,18.134,17.364,18.134,17.107z"/>
	<path fill-rule="evenodd" clip-rule="evenodd" fill="#8FA408" d="M18.846,22.828c-0.113-0.044-0.164,0.011-0.209,0.112
		c-0.207,0.424-0.636,0.627-1.083,0.517c-0.443-0.107-0.774-0.536-0.76-0.985c0.015-0.402,0.353-0.809,0.764-0.905
		c0.389-0.094,0.842,0.045,1.055,0.468c0.02,0.036,0.042,0.072,0.061,0.113c0.063,0.007,0.118,0.009,0.172,0.014l-0.002-0.003
		c0,0.224,0,0.449,0,0.672L18.846,22.828z M18.243,22.513c0-0.261-0.212-0.473-0.473-0.478c-0.269-0.001-0.491,0.219-0.484,0.481
		c0.005,0.263,0.222,0.468,0.483,0.466C18.03,22.982,18.243,22.769,18.243,22.513z"/>
	<path fill-rule="evenodd" clip-rule="evenodd" fill="none" d="M18.844,22.83c0-0.223,0-0.448,0-0.672
		c2.229-0.002,4.459-0.002,6.687-0.002c0.491,0,0.981,0,1.471,0c0.063,0,0.123,0,0.215,0c-0.029,0.065-0.045,0.114-0.068,0.16
		c-0.486,0.974-1.092,1.863-1.851,2.646c-0.019,0.018-0.027,0.04-0.042,0.059c-0.164,0.151-0.324,0.305-0.49,0.451
		c-1.106,0.984-2.373,1.689-3.79,2.117c-0.054,0.014-0.102,0.035-0.154,0.054c0.4,2.206,0.801,4.39,1.2,6.588
		c0.042-0.009,0.074-0.014,0.102-0.022c0.921-0.22,1.81-0.528,2.676-0.905c0.062-0.026,0.118-0.066,0.171-0.109
		c0.546-0.433,1.131-0.785,1.803-0.979c0.019-0.007,0.033-0.021,0.054-0.032c0.002-0.035,0.005-0.07,0.005-0.107
		c0.028-0.846,0.289-1.608,0.778-2.291c0.063-0.095,0.133-0.185,0.216-0.26c0.109-0.101,0.295-0.097,0.41,0
		c0.118,0.098,0.155,0.265,0.083,0.405c-0.021,0.041-0.054,0.081-0.085,0.12c-0.282,0.354-0.487,0.75-0.607,1.186
		c-0.048,0.169-0.076,0.344-0.116,0.551c0.056-0.028,0.078-0.039,0.098-0.05c0.748-0.512,1.443-1.094,2.096-1.721
		c0.24-0.229,0.472-0.469,0.697-0.712c0.629-0.681,1.198-1.41,1.701-2.188c0.045-0.069,0.076-0.158,0.09-0.242
		c0.069-0.393,0.052-0.789-0.008-1.189c-0.035,0.004-0.065,0.002-0.092,0.015c-0.211,0.09-0.428,0.167-0.628,0.278
		c-0.683,0.377-1.258,0.887-1.765,1.474c-0.262,0.301-0.491,0.62-0.676,0.978c-0.091,0.188-0.284,0.248-0.452,0.164
		c-0.16-0.083-0.224-0.269-0.142-0.446c0.051-0.116,0.111-0.223,0.177-0.329c0.347-0.566,0.784-1.058,1.271-1.504
		c0.573-0.524,1.203-0.963,1.938-1.229c0.099-0.033,0.198-0.066,0.3-0.102c0.003-0.055,0.007-0.103,0.007-0.151
		c0.039-0.89,0.331-1.687,0.876-2.391c0.036-0.049,0.079-0.098,0.128-0.136c0.128-0.095,0.294-0.087,0.41,0.018
		s0.149,0.271,0.072,0.407c-0.023,0.041-0.056,0.082-0.085,0.121c-0.229,0.283-0.402,0.6-0.525,0.938
		c-0.117,0.316-0.188,0.642-0.201,1.013c0.154-0.071,0.288-0.134,0.421-0.193c0.218-0.091,0.378-0.229,0.43-0.472
		c0.014-0.063,0.049-0.126,0.072-0.191c0.21-0.547,0.389-1.104,0.527-1.673c0.081-0.326,0.162-0.655,0.237-0.983
		c0.018-0.076,0.026-0.155,0.041-0.239c-0.579,0-1.139,0-1.697,0c-0.067-0.002-0.135-0.009-0.202-0.009c-3.734,0-7.469,0-11.205,0
		c-0.06,0-0.124,0-0.194,0c-0.116,0.277-0.285,0.499-0.576,0.596c-0.205,0.071-0.415,0.083-0.623,0.011
		c-0.347-0.118-0.754-0.487-0.701-0.987c0.042-0.405,0.374-0.801,0.79-0.888c0.477-0.103,0.85,0.102,1.11,0.619
		c4.463,0,8.933,0,13.423,0c0.044-0.404,0.084-0.81,0.131-1.226c-3.894,0-7.763,0-11.648,0c-0.109,0.279-0.292,0.502-0.592,0.599
		c-0.202,0.066-0.415,0.07-0.622,0c-0.423-0.15-0.711-0.565-0.686-0.988c0.028-0.416,0.379-0.803,0.806-0.895
		c0.453-0.096,0.825,0.113,1.098,0.622c3.88,0,7.763,0,11.674,0c0-0.157,0-0.312,0-0.465c0-0.149,0-0.299-0.005-0.447
		c-0.005-0.157-0.014-0.164-0.175-0.166c-0.044-0.002-0.086,0-0.13,0c-5.149,0-10.3,0-15.451,0.002c-0.07,0-0.137-0.002-0.204-0.002
		c0-0.212,0-0.424,0-0.636c2.166,0,4.337,0,6.505,0c0.055,0,0.111-0.007,0.166-0.012c0.057,0.003,0.11,0.009,0.167,0.009
		c2.967,0,5.933,0.002,8.899,0.002c0.056,0,0.109-0.004,0.192-0.009c-0.044-0.383-0.083-0.753-0.125-1.136c-0.083,0-0.147,0-0.209,0
		c-2.298,0-4.593,0-6.889,0c-0.144,0-0.285,0.008-0.429,0.01c-0.077-0.003-0.159-0.01-0.239-0.01c-2.597-0.002-5.196-0.002-7.797,0
		c-0.073,0-0.144,0-0.242,0c0-0.226,0-0.437,0-0.645c0.08-0.001,0.161-0.005,0.24-0.005c2.649-0.002,5.298,0,7.947-0.002
		c0.08,0,0.162-0.005,0.242-0.009c0.112,0.002,0.222,0.008,0.335,0.008c2.451,0.001,4.902,0.001,7.355,0.001
		c0.075,0,0.149,0,0.242,0c0.022,0.146,0.048,0.283,0.07,0.421c0.187,1.276,0.241,2.558,0.147,3.841
		c-0.028,0.374-0.07,0.741-0.104,1.11c-0.058,0.325-0.114,0.649-0.175,0.973c-0.359,1.877-1.013,3.644-1.976,5.288
		c-2.158,3.694-5.248,6.273-9.269,7.731c-0.708,0.258-1.43,0.456-2.168,0.613c-0.067,0.015-0.144,0.009-0.221,0.011
		c-0.125-0.667-0.247-1.319-0.358-1.973c-0.111-0.647-0.269-1.291-0.363-1.945c-0.097-0.652-0.241-1.297-0.355-1.947
		c-0.113-0.652-0.263-1.296-0.398-1.958c0.038-0.013,0.084-0.032,0.13-0.042c0.619-0.141,1.222-0.331,1.796-0.604
		c0.543-0.259,1.067-0.548,1.549-0.91c0.172-0.13,0.346-0.255,0.519-0.381c0.15-0.127,0.309-0.248,0.454-0.381
		c0.586-0.542,1.092-1.153,1.519-1.827c0.029-0.043,0.053-0.084,0.076-0.127c0.008-0.011,0.006-0.024,0.012-0.063
		c-0.064,0-0.128-0.01-0.192-0.01c-0.658,0-1.316,0-1.975,0c-1.62,0-3.24,0-4.861,0C18.989,22.813,18.915,22.826,18.844,22.83z
		 M22.212,18.361c-0.253-0.002-0.479,0.213-0.483,0.468c-0.008,0.25,0.213,0.479,0.465,0.486c0.26,0.01,0.49-0.214,0.49-0.478
		C22.684,18.579,22.472,18.363,22.212,18.361z M20.291,21.193c0.263,0.002,0.478-0.197,0.487-0.458
		c0.008-0.258-0.203-0.479-0.46-0.486c-0.274-0.007-0.495,0.202-0.5,0.471C19.816,20.977,20.028,21.188,20.291,21.193z
		 M32.834,25.489c0.016,0.099,0.023,0.183,0.036,0.29c0.092-0.115,0.153-0.219,0.179-0.362
		C32.972,25.443,32.911,25.464,32.834,25.489z"/>
	<path fill-rule="evenodd" clip-rule="evenodd" fill="#637405" d="M32.827,21.048c0.559,0,1.118,0,1.697,0
		c-0.015,0.084-0.023,0.163-0.041,0.239c-0.075,0.328-0.156,0.657-0.237,0.983c-0.139,0.568-0.317,1.126-0.527,1.673
		c-0.023,0.065-0.059,0.128-0.072,0.191c-0.052,0.243-0.212,0.381-0.43,0.472c-0.133,0.06-0.267,0.122-0.421,0.193
		c0.014-0.371,0.084-0.696,0.201-1.013c0.123-0.338,0.296-0.654,0.525-0.938c0.029-0.039,0.062-0.08,0.085-0.121
		c0.077-0.137,0.044-0.303-0.072-0.407s-0.282-0.112-0.41-0.018c-0.049,0.038-0.092,0.087-0.128,0.136
		c-0.545,0.704-0.837,1.501-0.876,2.391c0,0.049-0.004,0.097-0.007,0.151c-0.102,0.035-0.201,0.068-0.3,0.102
		c-0.735,0.267-1.365,0.705-1.938,1.229c-0.486,0.446-0.924,0.938-1.271,1.504c-0.065,0.106-0.126,0.213-0.177,0.329
		c-0.082,0.178-0.019,0.363,0.142,0.446c0.168,0.084,0.361,0.024,0.452-0.164c0.185-0.357,0.414-0.677,0.676-0.978
		c0.507-0.587,1.082-1.097,1.765-1.474c0.2-0.111,0.417-0.188,0.628-0.278c0.026-0.013,0.057-0.011,0.092-0.015
		c0.06,0.4,0.077,0.797,0.008,1.189c-0.014,0.084-0.045,0.173-0.09,0.242c-0.503,0.777-1.072,1.507-1.701,2.188
		c-0.226,0.243-0.457,0.483-0.697,0.712c-0.652,0.627-1.348,1.209-2.096,1.721c-0.02,0.011-0.042,0.021-0.098,0.05
		c0.04-0.207,0.068-0.382,0.116-0.551c0.12-0.436,0.325-0.832,0.607-1.186c0.031-0.039,0.064-0.079,0.085-0.12
		c0.072-0.141,0.035-0.308-0.083-0.405c-0.115-0.097-0.301-0.101-0.41,0c-0.083,0.075-0.153,0.165-0.216,0.26
		c-0.489,0.683-0.75,1.445-0.778,2.291c0,0.037-0.003,0.072-0.005,0.107c-0.021,0.011-0.035,0.025-0.054,0.032
		c-0.672,0.194-1.257,0.547-1.803,0.979c-0.053,0.043-0.109,0.083-0.171,0.109c-0.866,0.377-1.755,0.686-2.676,0.905
		c-0.027,0.009-0.06,0.014-0.102,0.022c-0.399-2.198-0.8-4.382-1.2-6.588c0.053-0.019,0.101-0.04,0.154-0.054
		c1.417-0.428,2.684-1.133,3.79-2.117c0.166-0.146,0.326-0.3,0.49-0.451c0.071,0.075,0.159,0.047,0.24,0.021
		c0.183-0.053,0.364-0.112,0.548-0.165c0.06-0.018,0.12-0.024,0.18-0.033c-0.003,0.031-0.003,0.061-0.011,0.091
		c-0.041,0.203-0.108,0.398-0.1,0.613c0.005,0.168-0.013,0.335-0.021,0.507c-0.043,0.013-0.083,0.035-0.124,0.044
		c-0.396,0.115-0.771,0.282-1.128,0.484c-0.877,0.489-1.628,1.134-2.291,1.88c-0.217,0.239-0.399,0.509-0.613,0.751
		c-0.231,0.26-0.381,0.569-0.519,0.882c-0.09,0.213,0.032,0.446,0.25,0.53c0.198,0.074,0.401-0.006,0.519-0.209
		c0.112-0.195,0.217-0.396,0.34-0.578c0.495-0.731,1.104-1.357,1.796-1.901c0.478-0.374,0.981-0.696,1.548-0.915
		c0.097-0.038,0.198-0.066,0.306-0.102c0.015,0.125,0.029,0.225,0.036,0.329c0.031,0.435,0.045,0.87-0.049,1.3
		c-0.148,0.681-0.498,1.267-0.892,1.825c-0.341,0.484-0.698,0.954-1.049,1.428c-0.014,0.019-0.026,0.042-0.038,0.063
		c-0.116,0.244,0.012,0.522,0.275,0.587c0.192,0.049,0.34-0.024,0.453-0.178c0.235-0.305,0.471-0.61,0.699-0.919
		c0.336-0.462,0.657-0.934,0.928-1.44c0.425-0.797,0.607-1.646,0.522-2.548c-0.022-0.224-0.035-0.446-0.051-0.652
		c0.014-0.021,0.018-0.026,0.021-0.028c0.042-0.016,0.082-0.034,0.121-0.047c1.032-0.38,1.889-1.01,2.597-1.848
		c0.037-0.047,0.078-0.098,0.107-0.15c0.102-0.184,0.053-0.409-0.112-0.534c-0.166-0.125-0.392-0.114-0.544,0.032
		c-0.031,0.027-0.059,0.063-0.085,0.097c-0.343,0.43-0.743,0.784-1.197,1.085c-0.298,0.2-0.614,0.368-0.981,0.499
		c0.04-0.538,0.135-1.036,0.363-1.504c0.065-0.01,0.137-0.01,0.195-0.036c0.725-0.285,1.415-0.636,2.102-0.995
		c0.629-0.333,1.237-0.7,1.821-1.112c0.419-0.295,0.828-0.605,1.239-0.914C32.726,21.207,32.77,21.12,32.827,21.048z"/>
	<path fill-rule="evenodd" clip-rule="evenodd" fill="none" d="M27.3,24.316c-0.229,0.468-0.323,0.966-0.363,1.504
		c0.367-0.131,0.684-0.299,0.981-0.499c0.454-0.301,0.854-0.655,1.197-1.085c0.026-0.034,0.054-0.069,0.085-0.097
		c0.152-0.146,0.378-0.157,0.544-0.032c0.165,0.125,0.214,0.351,0.112,0.534c-0.029,0.053-0.07,0.104-0.107,0.15
		c-0.708,0.838-1.564,1.468-2.597,1.848c-0.039,0.013-0.079,0.031-0.121,0.047c-0.004,0.002-0.008,0.008-0.021,0.028
		c0.016,0.206,0.028,0.429,0.051,0.652c0.085,0.901-0.098,1.751-0.522,2.548c-0.271,0.507-0.592,0.979-0.928,1.44
		c-0.229,0.309-0.464,0.614-0.699,0.919c-0.113,0.153-0.261,0.227-0.453,0.178c-0.264-0.064-0.392-0.343-0.275-0.587
		c0.012-0.021,0.024-0.044,0.038-0.063c0.351-0.474,0.708-0.943,1.049-1.428c0.394-0.559,0.743-1.145,0.892-1.825
		c0.094-0.43,0.08-0.865,0.049-1.3c-0.007-0.104-0.021-0.204-0.036-0.329c-0.107,0.035-0.209,0.063-0.306,0.102
		c-0.566,0.219-1.07,0.541-1.548,0.915c-0.691,0.544-1.301,1.17-1.796,1.901c-0.123,0.183-0.228,0.383-0.34,0.578
		c-0.117,0.203-0.32,0.283-0.519,0.209c-0.218-0.084-0.34-0.317-0.25-0.53c0.138-0.313,0.287-0.622,0.519-0.882
		c0.214-0.242,0.396-0.512,0.613-0.751c0.663-0.746,1.414-1.391,2.291-1.88c0.357-0.202,0.732-0.369,1.128-0.484
		c0.041-0.009,0.081-0.031,0.124-0.044c0.009-0.172,0.026-0.339,0.021-0.507c-0.009-0.215,0.059-0.41,0.1-0.613
		c0.008-0.03,0.008-0.06,0.011-0.091c0.113-0.316,0.214-0.636,0.342-0.943c0.16-0.38,0.376-0.729,0.635-1.051
		c0.044-0.051,0.086-0.106,0.14-0.152c0.153-0.127,0.378-0.125,0.53,0.002c0.152,0.129,0.193,0.351,0.093,0.526
		c-0.042,0.066-0.1,0.127-0.146,0.19C27.606,23.697,27.416,23.985,27.3,24.316z"/>
	<path fill-rule="evenodd" clip-rule="evenodd" fill="none" d="M0.792,16.978c0.039-0.377,0.071-0.754,0.115-1.128
		c0.149-1.275,0.447-2.515,0.883-3.722C2.704,9.602,4.127,7.399,6.06,5.532c0.326-0.314,0.669-0.61,1.004-0.915
		c0.252-0.191,0.501-0.386,0.755-0.574c1.72-1.275,3.613-2.195,5.676-2.766c0.06-0.015,0.119-0.035,0.204-0.061
		c0.154,0.603,0.268,1.21,0.404,1.811c0.138,0.611,0.265,1.225,0.397,1.837c0.131,0.606,0.262,1.213,0.395,1.819
		c0.133,0.612,0.269,1.225,0.401,1.836c0.132,0.606,0.262,1.211,0.396,1.83c0.077-0.02,0.143-0.032,0.206-0.053
		c0.976-0.298,1.972-0.385,2.983-0.317c0.596,0.041,1.182,0.151,1.753,0.331c0.096,0.03,0.167,0.027,0.261-0.029
		c0.322-0.199,0.723-0.169,1.012,0.057c0.268,0.21,0.402,0.607,0.314,0.934c-0.097,0.359-0.395,0.618-0.771,0.662
		c-0.231,0.028-0.457-0.025-0.636-0.157c-0.12-0.091-0.206-0.244-0.275-0.386c-0.049-0.101-0.108-0.151-0.209-0.18
		c-0.845-0.24-1.7-0.345-2.578-0.284c-1.414,0.1-2.69,0.565-3.83,1.401c-0.948,0.693-1.685,1.571-2.211,2.623
		c-0.014,0.028-0.021,0.058-0.031,0.088c-0.263,0.489-0.431,1.012-0.551,1.552c-0.587,2.637,0.266,5.298,2.289,7.09
		c1.123,0.995,2.438,1.582,3.929,1.767c1.194,0.15,2.352,0.008,3.477-0.416c0.093-0.032,0.154-0.074,0.181-0.183
		c0.126-0.479,0.578-0.748,1.045-0.632c0.458,0.111,0.728,0.575,0.618,1.057c-0.008,0.031-0.012,0.06-0.02,0.091
		c-0.122,0.237-0.291,0.422-0.549,0.517c-0.168,0.058-0.336,0.054-0.5,0.011c-0.135-0.037-0.25-0.037-0.386,0.016
		c-0.662,0.259-1.354,0.426-2.065,0.5c-0.183,0.021-0.368,0.033-0.58,0.052c0.456,2.92,0.911,5.834,1.367,8.759
		c-0.204,0.033-0.392,0.08-0.58,0.092c-0.826,0.052-1.651,0.056-2.476-0.005c-1.865-0.14-3.667-0.55-5.393-1.271
		c-2.847-1.187-5.216-3.003-7.106-5.442c-1.284-1.652-2.228-3.488-2.849-5.488c-0.04-0.134-0.077-0.265-0.117-0.406
		c0.068-0.025,0.128-0.057,0.191-0.076c0.448-0.142,0.896-0.282,1.345-0.419c0.307-0.093,0.62-0.168,0.928-0.258
		c0.742-0.225,1.481-0.447,2.222-0.673c0.047-0.015,0.094-0.029,0.141-0.047c0.042-0.007,0.084-0.014,0.126-0.026
		c1.114-0.332,2.228-0.668,3.342-0.999c0.16-0.051,0.318-0.1,0.48-0.149c-0.006-0.038-0.009-0.07-0.015-0.099
		c-0.053-0.358-0.129-0.712-0.157-1.069c-0.093-1.234,0.056-2.439,0.507-3.598c0.126-0.324,0.278-0.635,0.417-0.953
		c0.025-0.035,0.053-0.069,0.072-0.107c0.34-0.607,0.743-1.167,1.223-1.675c0.771-0.813,1.667-1.446,2.689-1.9
		c0.05-0.021,0.099-0.048,0.158-0.075c-0.615-2.843-1.229-5.678-1.843-8.52c-0.045,0.005-0.077,0.001-0.104,0.012
		c-0.369,0.127-0.737,0.261-1.107,0.387c-0.088,0.031-0.103,0.097-0.117,0.171c-0.041,0.208-0.084,0.414-0.118,0.622
		c-0.017,0.109-0.061,0.172-0.175,0.208c-0.259,0.078-0.515,0.172-0.758,0.255c-0.185-0.162-0.36-0.316-0.54-0.473
		c-0.227,0.127-0.433,0.257-0.649,0.362c-0.146,0.07-0.22,0.172-0.225,0.327C9.441,4.166,9.34,4.32,9.086,4.35
		c-0.03,0.003-0.059,0.017-0.088,0.029c-0.072,0.032-0.134,0.04-0.205-0.02C8.692,4.271,8.585,4.281,8.478,4.368
		C8.319,4.497,8.151,4.617,7.986,4.736c-0.063,0.047-0.101,0.1-0.114,0.181C7.846,5.082,7.801,5.245,7.775,5.41
		C7.763,5.49,7.726,5.528,7.653,5.552C7.47,5.61,7.286,5.67,7.106,5.738C7.008,5.775,6.92,5.795,6.843,5.709
		C6.816,5.727,6.799,5.735,6.787,5.747c-0.375,0.38-0.751,0.761-1.123,1.142C5.635,6.917,5.622,6.96,5.602,6.995
		c-0.034,0.028-0.071,0.05-0.097,0.081C4.906,7.758,4.374,8.49,3.898,9.262C3.879,9.293,3.867,9.327,3.847,9.375
		c0.099,0.011,0.184,0.02,0.27,0.029c1.079,0.104,2.021,0.524,2.807,1.27c0.255,0.242,0.466,0.53,0.697,0.797
		c0.11,0.2,0.222,0.396,0.329,0.6c0.059,0.112,0.107,0.233,0.161,0.349c0.04,0.003,0.071,0.005,0.102,0.008
		c0.388,0.043,0.646,0.36,0.603,0.747c-0.008,0.072-0.034,0.143-0.051,0.214c-0.109,0.116-0.217,0.232-0.346,0.37
		c0,0.022-0.003,0.085,0,0.146c0.019,0.367-0.005,0.731-0.072,1.091c-0.131,0.707-0.407,1.346-0.831,1.929
		c-0.634,0.869-1.464,1.457-2.489,1.764c-0.295,0.087-0.605,0.128-0.908,0.191c-0.049,0-0.099-0.002-0.148,0.003
		c-0.848,0.045-1.653-0.109-2.414-0.488c-0.032-0.015-0.065-0.028-0.123-0.05c0.009,0.668,0.06,1.311,0.157,1.962
		c0.985-0.303,1.945-0.599,2.905-0.898c0.061-0.013,0.121-0.022,0.181-0.04c0.973-0.296,1.944-0.59,2.917-0.887
		c0.171-0.052,0.343-0.104,0.523-0.16c0-0.07,0-0.131,0-0.192c-0.007-1.017,0.127-2.016,0.417-2.991
		c0.149-0.506,0.349-0.994,0.564-1.475c0.01-0.016,0.022-0.03,0.03-0.046c0.444-0.918,1.022-1.749,1.719-2.488
		c0.374-0.395,0.812-0.729,1.223-1.088c0.069-0.058,0.146-0.111,0.212-0.161c-0.054-0.679,0.235-1.005,0.604-1.136
		c0.437-0.155,0.904-0.003,1.156,0.359c0.242,0.347,0.228,0.807-0.034,1.148c-0.13,0.169-0.3,0.279-0.501,0.339
		c-0.312,0.094-0.598,0.01-0.862-0.153c-0.032,0.021-0.054,0.035-0.074,0.05c-0.816,0.602-1.521,1.316-2.1,2.149
		c-0.183,0.265-0.337,0.548-0.505,0.822c-0.035,0.05-0.076,0.096-0.102,0.151c-0.108,0.223-0.216,0.444-0.314,0.67
		c-0.596,1.368-0.843,2.799-0.758,4.284c0.012,0.183,0.013,0.183-0.157,0.235c-0.694,0.21-1.388,0.423-2.082,0.638
		c-0.538,0.163-1.077,0.334-1.615,0.5c-0.86,0.263-1.719,0.523-2.579,0.785c-0.426,0.131-0.852,0.257-1.286,0.394
		c-0.013-0.023-0.032-0.044-0.035-0.063c-0.113-0.663-0.194-1.327-0.238-1.992C0.754,18.366,0.761,17.671,0.792,16.978z
		 M11.66,24.738c0.271,0.234,0.532,0.482,0.816,0.7c0.761,0.593,1.603,1.04,2.508,1.364c0.092,0.033,0.186,0.061,0.272,0.086
		c0.402-0.426,0.854-0.522,1.279-0.287c0.38,0.214,0.575,0.656,0.474,1.082c-0.102,0.428-0.491,0.738-0.934,0.742
		c-0.505,0.002-0.827-0.284-0.996-0.889c-0.207-0.082-0.417-0.203-0.633-0.004c-0.035,0.35-0.081,0.414-0.424,0.573
		c-0.012,0.162-0.025,0.336-0.038,0.499c0.234,0.207,0.29,0.354,0.196,0.534c-0.096,0.183-0.205,0.23-0.391,0.207
		c-0.158-0.018-0.286-0.15-0.311-0.304c-0.032-0.196,0.063-0.329,0.331-0.457c0.009-0.083,0.022-0.169,0.03-0.255
		c0.008-0.087,0.009-0.172,0.013-0.254c-0.057-0.033-0.112-0.055-0.15-0.096c-0.087-0.089-0.196-0.165-0.182-0.318
		c0.026-0.31,0.148-0.44,0.474-0.493c0.036,0.004,0.071,0.008,0.107,0.017c0-0.009,0.002-0.015,0.005-0.023
		c-0.036-0.011-0.073-0.025-0.109-0.039c-0.027-0.016-0.053-0.034-0.082-0.045c-1.196-0.557-2.244-1.32-3.142-2.287
		c-0.024-0.027-0.052-0.047-0.09-0.082c-0.268,0.456-0.608,0.838-1.029,1.157c-0.081-0.201-0.141-0.394-0.231-0.568
		c-0.08-0.151-0.085-0.297-0.033-0.459c0.125-0.39,0.24-0.784,0.359-1.173c0.017-0.058,0.064-0.11-0.021-0.184
		c-0.24,0.381-0.411,0.789-0.586,1.196c-0.178-0.267-0.35-0.516-0.512-0.772c-0.028-0.047-0.032-0.12-0.02-0.174
		c0.068-0.276,0.144-0.553,0.218-0.827c0.071-0.15,0.137-0.305,0.216-0.45c0.048-0.087,0.042-0.157,0.004-0.243
		c-0.129-0.299-0.246-0.598-0.368-0.895c-0.015-0.038-0.035-0.076-0.06-0.132c-0.551,0.17-1.093,0.338-1.638,0.501
		c-0.048,0.013-0.097,0.023-0.143,0.039c-1.207,0.361-2.414,0.722-3.62,1.084c-0.326,0.099-0.652,0.195-0.995,0.3
		c0.253,0.811,0.575,1.581,0.947,2.333c0.84,1.692,1.941,3.192,3.292,4.509c0.573,0.559,1.18,1.079,1.832,1.545
		c0.094-0.103,0.014-0.152-0.034-0.211c-0.127-0.163-0.099-0.375,0.062-0.499c0.153-0.118,0.374-0.083,0.495,0.08
		c0.028,0.038,0.052,0.082,0.078,0.121c0.272,0,0.539,0,0.802,0c0.162-0.21,0.299-0.259,0.455-0.17
		c0.162,0.093,0.187,0.25,0.074,0.496c0.042,0.08,0.083,0.159,0.132,0.239c0.018,0.028,0.048,0.068,0.076,0.07
		c0.143,0.013,0.215,0.108,0.262,0.217c0.255,0.04,0.493,0.083,0.738,0.127c0.109-0.198,0.267-0.304,0.492-0.259
		c0.16,0.028,0.293,0.164,0.321,0.323c0.042,0.237-0.072,0.394-0.277,0.504c0.017,0.144,0.036,0.285,0.046,0.429
		c0.006,0.082,0.026,0.146,0.1,0.204c0.11,0.086,0.119,0.192,0.052,0.313c-0.016,0.028-0.035,0.062-0.059,0.099
		c0.682,0.259,1.358,0.481,2.062,0.638c-0.015-0.13-0.027-0.23-0.04-0.342c-0.309-0.189-0.62-0.383-0.929-0.57
		c-0.188,0.148-0.381,0.185-0.581,0.061c-0.167-0.104-0.249-0.264-0.219-0.46c0.041-0.265,0.224-0.384,0.483-0.419
		c0.036-0.131,0.071-0.255,0.105-0.379c0.037-0.131,0.072-0.261,0.108-0.39c-0.224-0.126-0.37-0.301-0.402-0.547
		c-0.029-0.228-0.013-0.451,0.191-0.613c-0.159-0.234-0.323-0.446-0.459-0.678c-0.142-0.239-0.306-0.459-0.454-0.683
		c-0.33,0.08-0.556,0.023-0.716-0.178c-0.154-0.19-0.187-0.408-0.086-0.631c0.143-0.309,0.408-0.392,0.732-0.344
		c0.111-0.214,0.218-0.423,0.321-0.625c-0.046-0.058-0.084-0.103-0.113-0.148c-0.115-0.184-0.095-0.426,0.048-0.587
		c0.14-0.164,0.361-0.216,0.558-0.139c0.213,0.088,0.333,0.286,0.31,0.522c-0.021,0.206-0.173,0.378-0.385,0.424
		c-0.071,0.019-0.144,0.021-0.218,0.032c-0.056,0.109-0.111,0.21-0.165,0.316c-0.053,0.104-0.105,0.206-0.154,0.305
		c0.239,0.262,0.325,0.543,0.055,0.934c0.306,0.447,0.615,0.895,0.923,1.344c0.191-0.065,0.366-0.084,0.544-0.02
		c0.177,0.061,0.295,0.193,0.409,0.34c0.448-0.154,0.888-0.3,1.315-0.442c0.01-0.15,0.013-0.272,0.029-0.395
		c0.005-0.06,0.017-0.124,0.05-0.172c0.092-0.129,0.206-0.243,0.346-0.326c0.333-0.19,0.759-0.131,1.027,0.146
		c0.255,0.267,0.312,0.698,0.11,1.03c-0.306,0.49-0.998,0.534-1.367,0.089c-0.043-0.053-0.081-0.107-0.123-0.159
		c-0.448,0.146-0.888,0.292-1.327,0.44c0.019,0.243-0.041,0.44-0.193,0.602c-0.159,0.17-0.366,0.223-0.594,0.228
		c-0.075,0.26-0.147,0.512-0.221,0.773c0.212,0.135,0.274,0.324,0.226,0.565c0.321,0.193,0.637,0.385,0.951,0.577
		c0.198-0.14,0.383-0.123,0.565,0.01c0.078-0.044,0.15-0.097,0.23-0.123c0.13-0.052,0.182-0.15,0.215-0.274
		c0.013-0.046,0.028-0.095,0.058-0.128c0.161-0.184,0.477-0.132,0.556,0.108c0.045,0.135,0.136,0.177,0.239,0.228
		c0.055,0.025,0.114,0.041,0.171,0.064c0.192,0.074,0.385,0.148,0.574,0.223c0.15-0.228,0.413-0.3,0.732-0.202
		c0.091-0.115,0.18-0.241,0.284-0.352c0.117-0.129,0.192-0.251,0.172-0.445c-0.019-0.196,0.186-0.342,0.377-0.304
		c0.166,0.035,0.272,0.17,0.264,0.332c-0.007,0.166-0.125,0.286-0.292,0.313c-0.057,0.009-0.133,0.016-0.166,0.055
		c-0.155,0.174-0.298,0.362-0.453,0.554c0.122,0.158,0.155,0.333,0.108,0.514c-0.044,0.184-0.172,0.305-0.332,0.399
		c0.547,0.019,1.084,0.028,1.636-0.019c-0.149-0.94-0.297-1.851-0.434-2.763c-0.135-0.903-0.301-1.801-0.427-2.701
		c-0.127-0.912-0.285-1.823-0.43-2.734c-0.047-0.003-0.069-0.007-0.095-0.007c-0.902-0.046-1.772-0.231-2.607-0.566
		c-0.333-0.138-0.654-0.3-0.98-0.448c-0.046-0.036-0.089-0.07-0.137-0.097c-1.777-1.058-3.007-2.562-3.681-4.52
		c-0.016-0.045-0.034-0.091-0.056-0.146c-0.367,0.11-0.726,0.218-1.083,0.324c0.01,0.041,0.011,0.058,0.017,0.075
		c0.015,0.049,0.03,0.097,0.046,0.142c0.359,0.973,0.859,1.87,1.522,2.669C11.111,24.183,11.394,24.455,11.66,24.738z M1.431,17.982
		c1.615,0.832,3.205,0.837,4.718-0.181c1.411-0.947,2.017-2.328,1.954-4.015c-0.722-0.203-0.785-0.893-0.32-1.273
		c-0.418-1.534-2.639-3.028-4.159-2.791c-0.238,0.419-0.467,0.85-0.665,1.293c0.057,0.063,0.101,0.113,0.147,0.163
		c0.09-0.008,0.177-0.014,0.263-0.023c0.687-0.082,1.321,0.081,1.898,0.443c1.595,1,1.884,3.204,0.59,4.587
		c-0.555,0.595-1.248,0.907-2.062,0.941c-0.081,0.005-0.132,0.027-0.187,0.092c-0.261,0.317-0.694,0.248-0.844-0.136
		c-0.033-0.084-0.082-0.115-0.154-0.142c-0.37-0.141-0.701-0.343-0.989-0.616c-0.024-0.024-0.053-0.042-0.101-0.079
		C1.451,16.831,1.422,17.39,1.431,17.982z M3.197,11.486c-0.006,0.232-0.073,0.4-0.216,0.536c-0.148,0.14-0.334,0.176-0.532,0.193
		c-0.096,0.291-0.192,0.571-0.281,0.854c-0.248,0.794-0.436,1.604-0.554,2.427c-0.048,0.329-0.048,0.332,0.19,0.564
		c0.284,0.275,0.611,0.481,0.998,0.609c0.129-0.171,0.295-0.25,0.506-0.219c0.215,0.034,0.322,0.188,0.409,0.375
		c1.102-0.08,1.93-0.577,2.387-1.584c0.459-1.012,0.318-1.987-0.395-2.839C5.062,11.63,4.206,11.355,3.197,11.486z M8.461,31.617
		c1.028,0.729,2.102,1.323,3.225,1.79c0.054-0.092,0.103-0.175,0.147-0.256c0.016-0.029,0.036-0.067,0.034-0.1
		c-0.018-0.164-0.041-0.331-0.063-0.503c-0.233-0.046-0.361-0.188-0.394-0.402c-0.015-0.013-0.02-0.019-0.025-0.019
		c-0.189-0.032-0.379-0.064-0.567-0.104c-0.088-0.021-0.159-0.026-0.236,0.045c-0.081,0.075-0.184,0.065-0.277,0.008
		c-0.091-0.058-0.14-0.167-0.092-0.274c0.039-0.092,0.018-0.154-0.026-0.227c-0.037-0.061-0.073-0.126-0.112-0.196
		c-0.179,0.02-0.294-0.071-0.375-0.223c-0.27,0-0.535,0-0.811,0c-0.07,0.153-0.184,0.258-0.372,0.269
		C8.499,31.487,8.482,31.542,8.461,31.617z M16.783,34.01c-0.15-0.062-0.304-0.124-0.458-0.187c-0.155-0.063-0.309-0.128-0.47-0.189
		c-0.131,0.108-0.271,0.146-0.428,0.059c-0.028-0.016-0.076-0.013-0.104,0c-0.13,0.068-0.258,0.144-0.385,0.218
		c0.023,0.176-0.032,0.315-0.156,0.425c0.315,0.141,2.084,0.361,2.294,0.286C16.847,34.435,16.818,34.376,16.783,34.01z
		 M14.249,27.225c0.052,0.064,0.077,0.19,0.214,0.086C14.38,27.28,14.315,27.25,14.249,27.225z"/>
	<path fill-rule="evenodd" clip-rule="evenodd" fill="none" d="M31.66,7.14c0.118,0.158,0.236,0.316,0.356,0.476
		c1.005,1.341,1.794,2.798,2.38,4.367c0.018,0.045,0.029,0.09,0.049,0.157c-0.087,0-0.155,0-0.224,0c-1.323,0-2.645,0-3.97,0.002
		c-0.072,0-0.146,0.003-0.221,0.007c-0.073-0.004-0.148-0.011-0.223-0.011c-1.412,0-2.82-0.002-4.231,0.002
		c-0.129,0.002-0.215-0.034-0.299-0.138c-0.442-0.534-0.935-1.012-1.49-1.425c-0.279-0.206-0.577-0.387-0.868-0.576
		c-0.763-0.491-1.597-0.82-2.471-1.046c-1.014-0.26-2.041-0.351-3.083-0.263c-0.043,0.003-0.089,0.006-0.131,0.007
		c-0.018,0-0.037-0.006-0.074-0.013c-0.563-2.598-1.126-5.203-1.694-7.825c0.125-0.021,0.231-0.043,0.34-0.057
		c0.863-0.109,1.73-0.168,2.601-0.15c2.839,0.059,5.51,0.75,8.008,2.109c1.504,0.82,2.859,1.841,4.057,3.064
		c0.364,0.373,0.7,0.773,1.051,1.162C31.566,7.04,31.614,7.089,31.66,7.14z M31.287,10.53c0.148,0.16,0.148,0.222,0,0.375
		c-0.216,0.223-0.467,0.39-0.753,0.505c-0.043,0.016-0.083,0.038-0.158,0.07c0.948,0.035,2.921,0.021,3.089-0.024
		c-0.017-0.051-0.03-0.104-0.055-0.153c-0.251-0.5-0.491-1.006-0.755-1.496c-0.173-0.317-0.383-0.613-0.575-0.92
		c-0.053-0.147-0.149-0.266-0.248-0.38c-0.046,0.009-0.081,0.019-0.118,0.026c-0.597,0.143-1.159,0.081-1.669-0.282
		c-0.207-0.147-0.407-0.305-0.61-0.459c-0.063-0.047-0.123-0.095-0.198-0.151c-0.063,0.122-0.11,0.228-0.169,0.33
		c-0.117,0.204-0.232,0.411-0.363,0.607c-0.164,0.248-0.391,0.429-0.655,0.564c-0.479,0.242-0.986,0.294-1.506,0.207
		c-0.237-0.04-0.469-0.119-0.695-0.202c-0.14-0.052-0.185-0.199-0.131-0.327c0.05-0.124,0.182-0.181,0.326-0.138
		c0.071,0.023,0.14,0.057,0.208,0.078c0.167,0.048,0.329,0.11,0.529,0.087c-0.169-0.531-0.334-1.047-0.5-1.576
		c-0.043,0.028-0.065,0.039-0.085,0.054c-0.069,0.06-0.142,0.12-0.21,0.183c-0.071,0.068-0.14,0.142-0.214,0.208
		c-0.118,0.104-0.248,0.106-0.354,0.012c-0.108-0.099-0.12-0.249-0.012-0.365c0.374-0.396,0.771-0.759,1.275-0.988
		c0.408-0.188,0.831-0.225,1.269-0.102c0.446,0.126,0.831,0.361,1.192,0.638c0.364,0.279,0.723,0.567,1.087,0.851
		c0.058,0.044,0.125,0.08,0.188,0.12c0.008-0.009,0.018-0.018,0.025-0.027c-0.151-0.476-0.305-0.953-0.456-1.434
		c-0.03,0.015-0.053,0.019-0.064,0.033c-0.133,0.186-0.263,0.372-0.406,0.572c-0.126-0.097-0.256-0.197-0.408-0.312
		c0.18-0.268,0.352-0.522,0.532-0.794c-0.294-0.263-0.59-0.526-0.886-0.79c-0.06,0.033-0.103,0.057-0.142,0.083
		c-0.501,0.327-1.042,0.556-1.637,0.638c-0.695,0.095-1.371,0.034-1.979-0.346c-0.334-0.211-0.647-0.456-0.963-0.697
		c-0.216-0.166-0.414-0.352-0.635-0.541c-0.038,0.067-0.068,0.119-0.1,0.171c-0.153,0.271-0.3,0.544-0.459,0.811
		c-0.206,0.341-0.439,0.663-0.754,0.916c-0.627,0.514-1.366,0.725-2.165,0.735c-0.625,0.009-1.231-0.13-1.807-0.377
		c-0.053-0.022-0.103-0.045-0.151-0.075c-0.173-0.106-0.239-0.303-0.169-0.484c0.073-0.185,0.248-0.283,0.449-0.249
		c0.053,0.011,0.106,0.033,0.158,0.056c0.278,0.128,0.568,0.213,0.868,0.271c0.063,0.013,0.127,0.013,0.2,0.019
		c-0.083-0.446-0.651-2.393-0.733-2.519c-0.065,0.048-0.133,0.092-0.194,0.145c-0.184,0.158-0.366,0.317-0.546,0.48
		c-0.213,0.194-0.437,0.209-0.61,0.036c-0.171-0.17-0.149-0.417,0.058-0.621c0.117-0.113,0.234-0.226,0.353-0.333
		c0.472-0.417,0.968-0.799,1.546-1.061c0.729-0.328,1.473-0.366,2.232-0.098c0.465,0.166,0.896,0.402,1.286,0.702
		c0.441,0.34,0.863,0.708,1.296,1.061c0.308,0.253,0.615,0.502,0.927,0.751c0.05,0.038,0.107,0.063,0.187,0.108
		c-0.01-0.07-0.008-0.101-0.017-0.129c-0.17-0.609-0.346-1.218-0.516-1.827c-0.018-0.068-0.052-0.108-0.116-0.132
		c-0.063-0.022-0.124-0.048-0.199-0.08c-0.184,0.265-0.359,0.519-0.542,0.784c-0.218-0.168-0.433-0.335-0.647-0.501
		c0.124-0.202,0.237-0.381,0.359-0.578c-0.793-0.28-1.578-0.509-2.39-0.656c-0.813-0.149-1.634-0.247-2.46-0.272
		c-0.828-0.024-1.655-0.015-2.5,0.1c0.478,2.209,0.952,4.394,1.42,6.568c0.04,0.009,0.052,0.015,0.063,0.015
		c0.496-0.015,0.993,0,1.487,0.061c0.086,0.011,0.14-0.024,0.197-0.076c0.145-0.127,0.288-0.26,0.443-0.372
		c0.609-0.437,1.167-0.412,1.789-0.029c0.237,0.146,0.453,0.325,0.675,0.492c0.153,0.115,0.303,0.237,0.457,0.353
		c0.036,0.026,0.079,0.041,0.159,0.08c-0.118-0.375-0.226-0.708-0.347-1.086c-0.124,0.178-0.226,0.321-0.328,0.467
		c-0.111-0.073-0.214-0.139-0.31-0.205c0.037-0.072,0.065-0.134,0.1-0.191c0.175-0.284,0.371-0.544,0.682-0.699
		c0.312-0.155,0.634-0.195,0.974-0.154c0.285,0.034,0.56,0.109,0.825,0.218c0.123,0.051,0.168,0.148,0.125,0.25
		c-0.036,0.093-0.125,0.13-0.249,0.096c-0.067-0.018-0.129-0.049-0.196-0.065c-0.117-0.027-0.229-0.09-0.37-0.071
		c0.143,0.444,0.281,0.876,0.423,1.32c0.045-0.022,0.07-0.031,0.089-0.046c0.046-0.039,0.091-0.08,0.141-0.122
		c0.033-0.033,0.065-0.073,0.104-0.105c0.083-0.063,0.166-0.062,0.239-0.001c0.072,0.06,0.083,0.167,0.026,0.253
		c-0.016,0.02-0.034,0.038-0.05,0.057c-0.237,0.252-0.521,0.442-0.854,0.545c-0.464,0.142-0.908,0.107-1.315-0.177
		c-0.148-0.103-0.289-0.216-0.434-0.324c-0.048-0.036-0.096-0.072-0.159-0.117c-0.063,0.127-0.121,0.242-0.18,0.354
		c0.016,0.015,0.023,0.026,0.034,0.031c0.046,0.022,0.091,0.044,0.135,0.064c0.881,0.374,1.689,0.867,2.428,1.475
		c0.408,0.335,0.788,0.702,1.138,1.096c0.045,0.048,0.108,0.107,0.162,0.109c0.272,0.012,0.544,0.005,0.819,0.005
		c-0.028-0.223-0.23-0.831-0.318-0.943c-0.11,0.101-0.217,0.203-0.329,0.301c-0.096,0.086-0.21,0.09-0.283,0.013
		c-0.078-0.08-0.075-0.18,0.021-0.279c0.242-0.254,0.498-0.486,0.806-0.655c0.375-0.208,0.764-0.242,1.168-0.103
		c0.292,0.102,0.549,0.264,0.79,0.45c0.212,0.164,0.416,0.334,0.628,0.499c0.096,0.074,0.198,0.139,0.295,0.208
		c0.01-0.009,0.018-0.017,0.029-0.026c-0.113-0.348-0.224-0.698-0.351-1.088c-0.125,0.181-0.226,0.327-0.335,0.485
		c-0.101-0.079-0.194-0.153-0.307-0.24c0.136-0.193,0.254-0.377,0.391-0.542c0.206-0.245,0.466-0.41,0.781-0.472
		c0.518-0.099,1.002,0.021,1.474,0.212c0.104,0.041,0.139,0.157,0.097,0.249c-0.037,0.083-0.135,0.124-0.237,0.095
		c-0.042-0.01-0.081-0.031-0.122-0.044c-0.146-0.043-0.291-0.082-0.479-0.136c0.154,0.485,0.296,0.928,0.442,1.384
		c0.049-0.031,0.077-0.044,0.101-0.063c0.056-0.049,0.117-0.095,0.165-0.151C31.086,10.552,31.173,10.509,31.287,10.53z
		 M21.258,5.755c-0.276-0.982-0.548-1.946-0.822-2.914c-0.344,0.023-0.649,0.111-0.95,0.261c0.281,0.991,0.555,1.968,0.837,2.961
		C20.653,6.022,20.955,5.923,21.258,5.755z M27.412,4.902C27.33,4.607,27.25,4.31,27.158,4.015c-0.013-0.045-0.065-0.09-0.109-0.116
		c-0.406-0.238-0.816-0.473-1.224-0.708c-0.032-0.018-0.074-0.027-0.144-0.051c0.191,0.666,0.369,1.3,0.546,1.925
		C26.631,5.111,27.083,5.047,27.412,4.902z M21.296,2.923c0.217,0.755,0.41,1.477,0.631,2.211c0.211-0.24,0.644-0.988,0.824-1.414
		C22.32,3.384,21.866,3.089,21.296,2.923z M26.726,6.986c0.199,0.623,0.396,1.24,0.595,1.864c0.218-0.048,0.411-0.1,0.586-0.228
		c-0.193-0.608-0.385-1.209-0.58-1.823C27.111,6.815,26.924,6.874,26.726,6.986z M29.9,9.455c-0.202,0.028-0.376,0.057-0.538,0.171
		c0.165,0.507,0.325,1.01,0.487,1.518c0.204-0.015,0.389-0.002,0.555-0.111C30.234,10.502,30.07,9.986,29.9,9.455z M23.938,8.609
		c-0.176-0.553-0.34-1.064-0.502-1.582c-0.194,0.009-0.364,0.05-0.527,0.16c0.158,0.497,0.313,0.989,0.477,1.503
		C23.568,8.664,23.737,8.64,23.938,8.609z M27.495,11.481c-0.142-0.44-0.277-0.867-0.42-1.318c-0.159,0.049-0.297,0.091-0.446,0.137
		c0.13,0.414,0.254,0.801,0.376,1.181C27.175,11.481,27.322,11.481,27.495,11.481z M27.876,6.831
		c0.153,0.48,0.295,0.926,0.436,1.372c0.015,0,0.032,0.002,0.049,0.004c0.153-0.294,0.307-0.589,0.466-0.892
		C28.535,7.1,28.251,6.927,27.876,6.831z M28.137,11.479c0.461,0,0.907,0,1.35,0c-0.37-0.158-0.664-0.422-0.98-0.675
		C28.376,11.036,28.262,11.25,28.137,11.479z M27.491,10.214c0.107,0.348,0.212,0.668,0.324,1.027
		c0.17-0.235,0.264-0.458,0.371-0.684C27.967,10.409,27.769,10.267,27.491,10.214z M21.513,8.573
		c0.039-0.074,0.083-0.151,0.12-0.227c0.036-0.077,0.07-0.156,0.104-0.228c-0.212-0.195-0.479-0.328-0.666-0.325
		c0.058,0.186,0.119,0.366,0.168,0.55C21.272,8.478,21.335,8.567,21.513,8.573z M31.482,8.067c0.008-0.016,0.013-0.033,0.021-0.049
		c-0.234-0.291-0.467-0.583-0.699-0.874c-0.016,0.007-0.029,0.015-0.043,0.021c0.098,0.307,0.195,0.614,0.297,0.938
		C31.208,8.091,31.345,8.08,31.482,8.067z M20.215,7.852c0.036,0.125,0.064,0.22,0.099,0.312c0.013,0.036,0.045,0.083,0.078,0.092
		c0.145,0.046,0.292,0.078,0.468,0.123c-0.073-0.236-0.139-0.439-0.21-0.662C20.501,7.763,20.366,7.805,20.215,7.852z M19.881,8.085
		c-0.022,0.015-0.035,0.026-0.049,0.038c0.01,0.009,0.014,0.024,0.024,0.025c0.015,0,0.03-0.009,0.046-0.014
		C19.896,8.12,19.89,8.104,19.881,8.085z"/>
	<path fill-rule="evenodd" clip-rule="evenodd" fill="#8FA408" d="M10.944,14.332c-0.14,0.318-0.292,0.629-0.417,0.953
		c-0.451,1.159-0.6,2.363-0.507,3.598c0.028,0.357,0.104,0.71,0.157,1.069c0.005,0.028,0.009,0.061,0.015,0.099
		c-0.162,0.05-0.32,0.099-0.48,0.149c-1.114,0.331-2.229,0.667-3.342,0.999c-0.042,0.013-0.084,0.02-0.126,0.026
		c-0.032-0.049-0.055-0.109-0.098-0.151c-0.229-0.202-0.466-0.397-0.696-0.598c-0.084-0.074-0.16-0.154-0.242-0.229
		c-0.068-0.063-0.142-0.119-0.206-0.186c-0.031-0.031-0.043-0.081-0.064-0.124c0.538-0.166,1.077-0.337,1.615-0.5
		c0.694-0.215,1.388-0.428,2.082-0.638c0.17-0.052,0.168-0.052,0.157-0.235c-0.085-1.485,0.162-2.916,0.758-4.284
		c0.098-0.226,0.207-0.447,0.314-0.67c0.026-0.055,0.067-0.102,0.102-0.151c0.123,0.108,0.251,0.211,0.369,0.323
		c0.157,0.148,0.305,0.305,0.459,0.456C10.835,14.275,10.894,14.301,10.944,14.332z"/>
	<path fill-rule="evenodd" clip-rule="evenodd" fill="#8FA408" d="M27.122,15.654c0.144-0.001,0.285-0.01,0.429-0.01
		c2.296,0,4.591,0,6.889,0c0.062,0,0.126,0,0.209,0c0.042,0.382,0.081,0.753,0.125,1.136c-0.083,0.005-0.137,0.009-0.192,0.009
		c-2.967,0-5.933-0.002-8.899-0.002c-0.057,0-0.11-0.006-0.167-0.009c0.016-0.126,0.127-0.153,0.214-0.205
		c0.399-0.237,0.8-0.469,1.192-0.711C27.001,15.812,27.058,15.725,27.122,15.654z"/>
	<path fill-rule="evenodd" clip-rule="evenodd" fill="none" d="M16.129,15.309c-0.001,0.269-0.2,0.472-0.464,0.474
		c-0.264,0.003-0.483-0.217-0.479-0.483c0.004-0.256,0.225-0.472,0.479-0.468C15.931,14.836,16.129,15.04,16.129,15.309z"/>
	<path fill-rule="evenodd" clip-rule="evenodd" fill="none" d="M18.134,17.107c0,0.257-0.212,0.47-0.471,0.47
		c-0.269,0.002-0.49-0.218-0.484-0.479c0.007-0.261,0.221-0.466,0.484-0.463C17.922,16.636,18.134,16.847,18.134,17.107z"/>
	<path fill-rule="evenodd" clip-rule="evenodd" fill="none" d="M18.243,22.513c0,0.256-0.213,0.47-0.474,0.47
		c-0.262,0.002-0.478-0.203-0.483-0.466c-0.006-0.263,0.215-0.482,0.484-0.481C18.031,22.04,18.243,22.252,18.243,22.513z"/>
	<path fill-rule="evenodd" clip-rule="evenodd" fill="#8FA408" d="M22.212,18.361c0.26,0.002,0.472,0.218,0.472,0.477
		c0,0.264-0.23,0.487-0.49,0.478c-0.252-0.007-0.473-0.235-0.465-0.486C21.733,18.574,21.959,18.359,22.212,18.361z"/>
	<path fill-rule="evenodd" clip-rule="evenodd" fill="#8FA408" d="M20.291,21.193c-0.263-0.005-0.475-0.217-0.473-0.474
		c0.005-0.269,0.226-0.478,0.5-0.471c0.257,0.008,0.468,0.229,0.46,0.486C20.769,20.996,20.554,21.195,20.291,21.193z"/>
	<path fill-rule="evenodd" clip-rule="evenodd" fill="#8FA408" d="M32.834,25.489c0.077-0.025,0.138-0.046,0.215-0.072
		c-0.025,0.144-0.087,0.247-0.179,0.362C32.857,25.672,32.85,25.588,32.834,25.489z"/>
	<path fill-rule="evenodd" clip-rule="evenodd" fill="#637405" d="M8.83,22.906c-0.074,0.274-0.15,0.551-0.218,0.827
		c-0.012,0.054-0.008,0.127,0.02,0.174c0.162,0.257,0.334,0.506,0.512,0.772c0.175-0.407,0.346-0.815,0.586-1.196
		c0.085,0.073,0.038,0.126,0.021,0.184c-0.119,0.389-0.234,0.783-0.359,1.173c-0.052,0.162-0.046,0.308,0.033,0.459
		c0.09,0.175,0.15,0.367,0.231,0.568c0.421-0.319,0.761-0.701,1.029-1.157c0.039,0.035,0.066,0.055,0.09,0.082
		c0.897,0.967,1.945,1.73,3.142,2.287c0.029,0.011,0.055,0.029,0.082,0.045c0,0.015-0.001,0.031-0.003,0.046
		c-0.326,0.053-0.448,0.184-0.474,0.493c-0.014,0.153,0.095,0.229,0.182,0.318c0.038,0.041,0.093,0.063,0.15,0.096
		c-0.004,0.082-0.005,0.167-0.013,0.254c-0.008,0.086-0.021,0.172-0.03,0.255c-0.268,0.128-0.363,0.261-0.331,0.457
		c0.025,0.153,0.153,0.286,0.311,0.304c0.186,0.023,0.295-0.024,0.391-0.207c0.093-0.181,0.038-0.327-0.196-0.534
		c0.013-0.163,0.026-0.337,0.038-0.499c0.343-0.159,0.389-0.224,0.424-0.573c0.216-0.199,0.426-0.078,0.633,0.004
		c0.169,0.604,0.491,0.891,0.996,0.889c0.443-0.004,0.833-0.314,0.934-0.742c0.102-0.426-0.093-0.868-0.474-1.082
		c-0.425-0.235-0.877-0.139-1.279,0.287c-0.087-0.025-0.181-0.053-0.272-0.086c-0.906-0.324-1.747-0.771-2.508-1.364
		c-0.284-0.218-0.545-0.466-0.816-0.7c0.102,0.016,0.206,0.026,0.305,0.059c0.569,0.185,1.135,0.378,1.707,0.563
		c0.181,0.052,0.368,0.109,0.564,0.075c0.326,0.148,0.646,0.311,0.98,0.448c0.835,0.335,1.706,0.521,2.607,0.566
		c0.025,0,0.047,0.004,0.095,0.007c0.146,0.911,0.303,1.822,0.43,2.734c0.126,0.9,0.292,1.798,0.427,2.701
		c0.137,0.912,0.284,1.822,0.434,2.763c-0.552,0.047-1.089,0.037-1.636,0.019c0.16-0.095,0.288-0.216,0.332-0.399
		c0.047-0.181,0.014-0.355-0.108-0.514c0.155-0.191,0.298-0.38,0.453-0.554c0.033-0.039,0.108-0.046,0.166-0.055
		c0.167-0.027,0.286-0.147,0.292-0.313c0.008-0.162-0.098-0.297-0.264-0.332c-0.192-0.038-0.396,0.107-0.377,0.304
		c0.02,0.194-0.055,0.316-0.172,0.445c-0.104,0.11-0.193,0.236-0.284,0.352c-0.319-0.098-0.582-0.025-0.732,0.202
		c-0.188-0.074-0.381-0.148-0.574-0.223c-0.057-0.023-0.116-0.039-0.171-0.064c-0.103-0.051-0.194-0.093-0.239-0.228
		c-0.079-0.24-0.395-0.292-0.556-0.108c-0.03,0.033-0.045,0.082-0.058,0.128c-0.033,0.124-0.085,0.223-0.215,0.274
		c-0.08,0.026-0.152,0.079-0.23,0.123c-0.183-0.133-0.368-0.149-0.565-0.01c-0.314-0.192-0.63-0.384-0.951-0.577
		c0.048-0.241-0.013-0.431-0.226-0.565c0.074-0.262,0.146-0.514,0.221-0.773c0.228-0.005,0.435-0.058,0.594-0.228
		c0.152-0.161,0.212-0.358,0.193-0.602c0.439-0.148,0.879-0.294,1.327-0.44c0.042,0.052,0.079,0.106,0.123,0.159
		c0.37,0.445,1.062,0.401,1.367-0.089c0.202-0.332,0.145-0.764-0.11-1.03c-0.268-0.276-0.693-0.336-1.027-0.146
		c-0.141,0.083-0.254,0.197-0.346,0.326c-0.033,0.048-0.044,0.112-0.05,0.172c-0.016,0.122-0.019,0.244-0.029,0.395
		c-0.427,0.143-0.867,0.288-1.315,0.442c-0.114-0.146-0.231-0.279-0.409-0.34c-0.179-0.064-0.354-0.046-0.544,0.02
		c-0.308-0.449-0.617-0.896-0.923-1.344c0.27-0.391,0.184-0.672-0.055-0.934c0.049-0.099,0.101-0.2,0.154-0.305
		c0.054-0.106,0.109-0.207,0.165-0.316c0.074-0.011,0.147-0.014,0.218-0.032c0.212-0.046,0.364-0.218,0.385-0.424
		c0.023-0.236-0.097-0.435-0.31-0.522c-0.197-0.077-0.418-0.025-0.558,0.139c-0.143,0.161-0.164,0.403-0.048,0.587
		c0.028,0.046,0.066,0.091,0.113,0.148c-0.104,0.202-0.21,0.411-0.321,0.625c-0.324-0.048-0.589,0.035-0.732,0.344
		c-0.101,0.223-0.068,0.44,0.086,0.631c0.16,0.201,0.386,0.258,0.716,0.178c0.148,0.224,0.313,0.443,0.454,0.683
		c0.136,0.231,0.301,0.443,0.459,0.678c-0.205,0.162-0.221,0.386-0.191,0.613c0.032,0.246,0.178,0.421,0.402,0.547
		c-0.036,0.129-0.071,0.259-0.108,0.39c-0.035,0.124-0.07,0.248-0.105,0.379c-0.259,0.035-0.442,0.154-0.483,0.419
		c-0.03,0.196,0.052,0.356,0.219,0.46c0.199,0.124,0.392,0.088,0.581-0.061c0.309,0.188,0.621,0.381,0.929,0.57
		c0.012,0.111,0.024,0.212,0.04,0.342c-0.704-0.156-1.38-0.379-2.062-0.638c0.024-0.037,0.043-0.07,0.059-0.099
		c0.066-0.121,0.058-0.228-0.052-0.313c-0.074-0.058-0.093-0.122-0.1-0.204c-0.011-0.144-0.03-0.285-0.046-0.429
		c0.205-0.11,0.319-0.267,0.277-0.504c-0.028-0.159-0.162-0.295-0.321-0.323c-0.225-0.045-0.382,0.061-0.492,0.259
		c-0.245-0.044-0.483-0.087-0.738-0.127c-0.047-0.108-0.12-0.204-0.262-0.217c-0.028-0.002-0.059-0.042-0.076-0.07
		c-0.048-0.08-0.09-0.159-0.132-0.239c0.113-0.246,0.088-0.403-0.074-0.496c-0.156-0.089-0.292-0.04-0.455,0.17
		c-0.264,0-0.53,0-0.802,0c-0.026-0.039-0.049-0.083-0.078-0.121c-0.121-0.163-0.342-0.198-0.495-0.08
		c-0.161,0.124-0.188,0.336-0.062,0.499c0.047,0.059,0.128,0.108,0.034,0.211c-0.652-0.466-1.259-0.986-1.832-1.545
		c-1.351-1.316-2.452-2.816-3.292-4.509c-0.373-0.752-0.694-1.522-0.947-2.333c0.343-0.104,0.669-0.201,0.995-0.3
		c1.206-0.362,2.413-0.723,3.62-1.084c0.046-0.016,0.095-0.026,0.143-0.039c0.048,0.057,0.085,0.127,0.144,0.165
		c0.478,0.324,0.959,0.646,1.443,0.96C8.646,22.863,8.743,22.875,8.83,22.906z M7.392,29.02c-0.02,0-0.042,0.002-0.063,0.002
		c-0.077-0.19-0.154-0.386-0.23-0.579c-0.078-0.193-0.152-0.385-0.381-0.461c-0.09-0.026-0.169-0.089-0.263-0.141
		c-0.018,0.131-0.04,0.229-0.048,0.334c-0.028,0.382-0.041,0.767,0.139,1.117c0.098,0.194,0.2,0.386,0.329,0.56
		c0.279,0.372,0.651,0.646,1.048,0.884c0.04,0.022,0.083,0.039,0.125,0.062c0.013-0.026,0.021-0.036,0.024-0.044
		c0.288-0.785,0.17-1.528-0.205-2.253c-0.014-0.022-0.035-0.058-0.06-0.065c-0.193-0.064-0.39-0.122-0.591-0.186
		c0.008,0.052,0.012,0.092,0.021,0.133C7.288,28.595,7.34,28.806,7.392,29.02z M7.158,24.372c0.235,0.137,0.479,0.266,0.704,0.419
		c0.496,0.333,0.966,0.698,1.334,1.177c0.438,0.568,0.794,1.188,1.073,1.849c0.19,0.45,0.36,0.911,0.417,1.399
		c0.004,0.033,0.033,0.062,0.05,0.087c0.018-0.142,0.015-0.274-0.004-0.412c-0.067-0.474-0.22-0.927-0.41-1.365
		c-0.249-0.578-0.578-1.109-0.94-1.622c-0.046-0.064-0.099-0.132-0.118-0.205c-0.197-0.761-0.618-1.379-1.168-1.917
		c-0.63-0.613-1.374-1.019-2.246-1.16c-0.2-0.032-0.402-0.064-0.611-0.035c0,0.042-0.004,0.075,0.001,0.105
		c0.108,0.671,0.276,1.321,0.595,1.928c0.354,0.676,0.862,1.194,1.56,1.518c0.544,0.252,1.122,0.35,1.715,0.375
		c0.021,0.002,0.041-0.006,0.075-0.015c-0.044-0.063-0.077-0.107-0.11-0.147c-0.35-0.45-0.736-0.86-1.152-1.244
		c-0.26-0.238-0.526-0.474-0.788-0.708C7.143,24.389,7.15,24.382,7.158,24.372z M8.376,27.578c-1.5,0.325-2.761-0.188-3.908-1.115
		c0.061,0.073,0.113,0.155,0.185,0.219c0.16,0.138,0.322,0.275,0.497,0.391c0.423,0.278,0.889,0.465,1.366,0.628
		c0.095,0.033,0.185,0.081,0.274,0.128c0.191,0.095,0.38,0.194,0.573,0.283c0.268,0.125,0.554,0.152,0.843,0.171
		c0.333,0.022,0.658,0,0.977-0.09c0.331-0.088,0.637-0.23,0.914-0.466c-0.465-0.433-0.953-0.796-1.569-0.949
		c-0.23-0.055-0.464-0.078-0.702-0.052c-0.471,0.049-0.886,0.234-1.266,0.507c-0.031,0.025-0.055,0.053-0.09,0.087
		C7.107,27.494,7.743,27.533,8.376,27.578z"/>
	<path fill-rule="evenodd" clip-rule="evenodd" fill="#C6D90C" d="M10.944,14.332c-0.05-0.031-0.108-0.056-0.15-0.095
		c-0.155-0.15-0.303-0.307-0.459-0.456c-0.118-0.112-0.246-0.215-0.369-0.323c0.167-0.274,0.322-0.558,0.505-0.822
		c0.579-0.833,1.283-1.547,2.1-2.149c0.02-0.016,0.042-0.029,0.074-0.05c0.264,0.164,0.55,0.247,0.862,0.153
		c0.201-0.06,0.371-0.17,0.501-0.339c0.261-0.341,0.276-0.801,0.034-1.148c-0.251-0.363-0.719-0.515-1.156-0.359
		c-0.369,0.13-0.659,0.457-0.604,1.136c-0.066,0.049-0.143,0.103-0.212,0.161c-0.411,0.359-0.849,0.693-1.223,1.088
		c-0.697,0.739-1.275,1.569-1.719,2.488c-0.008,0.016-0.02,0.031-0.03,0.046c-0.11-0.006-0.128-0.118-0.196-0.173
		c-0.044-0.035-0.091-0.066-0.137-0.101c0.017-0.072,0.043-0.143,0.051-0.214c0.043-0.387-0.214-0.704-0.603-0.747
		c-0.03-0.003-0.062-0.005-0.102-0.008c-0.054-0.116-0.103-0.236-0.161-0.349c-0.106-0.203-0.219-0.4-0.329-0.6
		c-0.017-0.077-0.021-0.159-0.052-0.229c-0.05-0.112-0.125-0.213-0.177-0.325c-0.126-0.268-0.256-0.533-0.364-0.807
		c-0.183-0.458-0.35-0.919-0.524-1.38c0.061-0.276,0.121-0.552,0.183-0.833c-0.15-0.132-0.291-0.262-0.438-0.386
		C6.001,7.306,6.1,7.318,5.796,7.416C5.76,7.426,5.724,7.432,5.688,7.439C5.659,7.292,5.631,7.144,5.602,6.995
		c0.02-0.035,0.033-0.078,0.062-0.106c0.372-0.381,0.749-0.762,1.123-1.142c0.012-0.012,0.029-0.02,0.056-0.037
		C6.92,5.795,7.008,5.775,7.106,5.738C7.286,5.67,7.47,5.61,7.653,5.552C7.726,5.528,7.763,5.49,7.775,5.41
		c0.025-0.165,0.07-0.328,0.097-0.493c0.013-0.081,0.05-0.134,0.114-0.181c0.165-0.119,0.333-0.239,0.492-0.368
		c0.107-0.087,0.214-0.097,0.316-0.009c0.07,0.06,0.132,0.052,0.205,0.02C9.027,4.367,9.056,4.353,9.086,4.35
		C9.34,4.32,9.441,4.166,9.449,3.925c0.005-0.155,0.08-0.257,0.225-0.327c0.217-0.105,0.423-0.235,0.649-0.362
		c0.18,0.157,0.355,0.311,0.54,0.473c0.244-0.083,0.499-0.177,0.758-0.255c0.114-0.035,0.158-0.098,0.175-0.208
		c0.034-0.208,0.078-0.414,0.118-0.622c0.014-0.074,0.029-0.14,0.117-0.171c0.37-0.126,0.738-0.259,1.107-0.387
		c0.027-0.01,0.059-0.006,0.104-0.012c0.614,2.842,1.228,5.677,1.843,8.52c-0.059,0.026-0.108,0.053-0.158,0.075
		c-1.022,0.455-1.919,1.088-2.689,1.9c-0.48,0.508-0.882,1.068-1.223,1.675C10.997,14.263,10.969,14.296,10.944,14.332z
		 M8.531,6.063C8.169,6.187,7.813,6.31,7.454,6.427C7.383,6.451,7.366,6.499,7.354,6.565c-0.065,0.333-0.132,0.667-0.202,1
		C7.136,7.636,7.153,7.687,7.203,7.73C7.3,7.815,7.4,7.896,7.495,7.982c0.151,0.136,0.299,0.274,0.445,0.416
		c0.059,0.057,0.115,0.083,0.197,0.055C8.463,8.336,8.79,8.222,9.119,8.112c0.077-0.025,0.111-0.065,0.125-0.14
		c0.065-0.334,0.133-0.667,0.2-1.001c0.014-0.065,0.003-0.118-0.052-0.164C9.105,6.561,8.82,6.313,8.531,6.063z M11.111,6.166
		c0.065-0.32,0.126-0.63,0.192-0.939c0.016-0.074-0.022-0.114-0.07-0.157c-0.208-0.177-0.413-0.356-0.616-0.538
		c-0.058-0.053-0.113-0.065-0.186-0.04C10.167,4.583,9.904,4.67,9.64,4.76c-0.054,0.019-0.1,0.042-0.112,0.108
		C9.469,5.185,9.407,5.5,9.345,5.818c0.268,0.233,0.529,0.46,0.785,0.684C10.468,6.386,10.791,6.275,11.111,6.166z M9.326,9.23
		c0.019,0.024,0.044,0.072,0.081,0.106c0.2,0.177,0.404,0.35,0.602,0.531c0.063,0.056,0.119,0.068,0.201,0.038
		c0.25-0.092,0.503-0.179,0.758-0.258c0.092-0.029,0.128-0.082,0.144-0.167c0.051-0.262,0.102-0.525,0.158-0.785
		c0.018-0.085-0.007-0.14-0.07-0.193c-0.204-0.173-0.405-0.349-0.604-0.527c-0.063-0.057-0.121-0.072-0.202-0.042
		c-0.257,0.093-0.515,0.182-0.776,0.265C9.532,8.226,9.506,8.279,9.49,8.358c-0.045,0.244-0.097,0.486-0.145,0.73
		C9.339,9.125,9.336,9.162,9.326,9.23z M13.469,3.813c-0.317,0.107-0.609,0.209-0.904,0.304c-0.089,0.028-0.11,0.09-0.124,0.164
		c-0.061,0.317-0.124,0.633-0.186,0.952c0.227,0.311,0.576,0.48,0.837,0.745c0.272-0.094,0.528-0.181,0.788-0.272
		C13.742,5.071,13.608,4.454,13.469,3.813z M7.539,9.073C7.483,9.362,7.431,9.642,7.379,9.912c0.226,0.2,0.438,0.388,0.646,0.572
		c0.071-0.03,0.137-0.061,0.205-0.085c0.165-0.057,0.328-0.116,0.494-0.167c0.067-0.021,0.105-0.059,0.118-0.127
		c0.04-0.213,0.081-0.426,0.125-0.639c0.016-0.077-0.007-0.128-0.067-0.178C8.737,9.151,8.579,9.013,8.422,8.87
		C8.364,8.817,8.308,8.808,8.235,8.833C8.009,8.913,7.781,8.99,7.539,9.073z M12.32,7.146c-0.182-0.164-0.365-0.331-0.553-0.491
		c-0.031-0.026-0.094-0.04-0.133-0.027c-0.207,0.063-0.411,0.133-0.615,0.209c-0.043,0.018-0.092,0.069-0.103,0.113
		c-0.048,0.205-0.082,0.413-0.124,0.62c-0.013,0.067,0.001,0.118,0.056,0.164c0.157,0.133,0.311,0.269,0.462,0.406
		c0.051,0.046,0.103,0.062,0.169,0.038c0.225-0.08,0.453-0.158,0.685-0.239C12.214,7.682,12.264,7.43,12.32,7.146z"/>
	<path fill-rule="evenodd" clip-rule="evenodd" fill="#8FA408" d="M1.431,17.982c-0.008-0.592,0.02-1.152,0.09-1.738
		c0.048,0.037,0.077,0.055,0.101,0.079c0.288,0.273,0.62,0.475,0.989,0.616c0.072,0.027,0.121,0.058,0.154,0.142
		c0.15,0.384,0.583,0.454,0.844,0.136c0.054-0.064,0.106-0.087,0.187-0.092c0.814-0.034,1.507-0.347,2.062-0.941
		c1.294-1.383,1.005-3.587-0.59-4.587c-0.577-0.362-1.211-0.525-1.898-0.443c-0.086,0.009-0.173,0.016-0.263,0.023
		c-0.046-0.05-0.091-0.1-0.147-0.163c0.197-0.443,0.426-0.874,0.665-1.293c1.52-0.237,3.741,1.256,4.159,2.791
		c-0.465,0.381-0.402,1.07,0.32,1.273c0.063,1.687-0.543,3.068-1.954,4.015C4.635,18.82,3.045,18.814,1.431,17.982z"/>
	<path fill-rule="evenodd" clip-rule="evenodd" fill="#8FA408" d="M3.197,11.486c1.009-0.131,1.865,0.144,2.511,0.917
		c0.713,0.852,0.854,1.827,0.395,2.839c-0.457,1.007-1.285,1.504-2.387,1.584c-0.086-0.188-0.194-0.341-0.409-0.375
		c-0.211-0.031-0.376,0.047-0.506,0.219c-0.387-0.127-0.713-0.334-0.998-0.609c-0.238-0.232-0.238-0.235-0.19-0.564
		c0.118-0.824,0.307-1.633,0.554-2.427c0.088-0.283,0.185-0.563,0.281-0.854c0.197-0.017,0.384-0.054,0.532-0.193
		C3.124,11.887,3.191,11.719,3.197,11.486z M4.835,14.134c-0.004-0.627-0.503-1.165-1.167-1.169
		c-0.646-0.006-1.167,0.526-1.164,1.176c0.004,0.644,0.517,1.155,1.161,1.162C4.255,15.31,4.835,14.836,4.835,14.134z"/>
	<path fill-rule="evenodd" clip-rule="evenodd" fill="#8FA408" d="M14.235,25.435c-0.196,0.034-0.383-0.023-0.564-0.075
		c-0.571-0.185-1.137-0.378-1.707-0.563c-0.099-0.032-0.203-0.043-0.305-0.059c-0.266-0.283-0.549-0.556-0.797-0.856
		c-0.663-0.799-1.163-1.696-1.522-2.669c-0.016-0.045-0.031-0.093-0.046-0.142c-0.006-0.018-0.007-0.034-0.017-0.075
		c0.358-0.106,0.717-0.214,1.083-0.324c0.022,0.056,0.041,0.102,0.056,0.146c0.674,1.958,1.904,3.462,3.681,4.52
		C14.146,25.364,14.189,25.398,14.235,25.435z"/>
	<path fill-rule="evenodd" clip-rule="evenodd" fill="#8FA408" d="M8.764,13.389c0.046,0.035,0.093,0.065,0.137,0.101
		c0.068,0.055,0.086,0.167,0.196,0.173c-0.216,0.481-0.416,0.969-0.564,1.475c-0.29,0.976-0.424,1.975-0.417,2.991
		c0,0.061,0,0.122,0,0.192c-0.18,0.056-0.352,0.108-0.523,0.16c-0.973,0.297-1.944,0.591-2.917,0.887
		c-0.06,0.018-0.12,0.027-0.181,0.04c-0.048-0.067-0.09-0.141-0.145-0.203c-0.091-0.101-0.196-0.188-0.232-0.325
		c0.303-0.063,0.613-0.104,0.908-0.191c1.025-0.307,1.854-0.895,2.489-1.764c0.424-0.583,0.7-1.222,0.831-1.929
		c0.067-0.36,0.091-0.724,0.072-1.091c-0.003-0.062,0-0.125,0-0.146C8.546,13.621,8.655,13.504,8.764,13.389z"/>
	<path fill-rule="evenodd" clip-rule="evenodd" fill="#8FA408" d="M5.602,6.995c0.029,0.149,0.057,0.297,0.086,0.445
		C5.532,7.497,5.375,7.555,5.22,7.613c-0.041,0.225-0.081,0.453-0.122,0.68c-0.013,0.08-0.03,0.153,0.049,0.218
		C5.339,8.667,5.522,8.833,5.715,9c0.264-0.09,0.526-0.181,0.788-0.271c0.174,0.461,0.341,0.922,0.524,1.38
		c0.108,0.274,0.238,0.54,0.364,0.807c0.053,0.111,0.127,0.213,0.177,0.325c0.031,0.07,0.036,0.152,0.052,0.229
		c-0.231-0.267-0.442-0.555-0.697-0.797c-0.786-0.746-1.728-1.166-2.807-1.27c-0.086-0.009-0.171-0.019-0.27-0.029
		c0.02-0.047,0.032-0.082,0.051-0.113C4.374,8.49,4.906,7.758,5.505,7.076C5.531,7.044,5.568,7.022,5.602,6.995z"/>
	<path fill-rule="evenodd" clip-rule="evenodd" fill="#637405" d="M4.118,18.879c0.036,0.136,0.142,0.224,0.232,0.325
		c0.055,0.063,0.097,0.136,0.145,0.203c-0.96,0.3-1.92,0.596-2.905,0.898c-0.097-0.651-0.148-1.294-0.157-1.962
		c0.057,0.022,0.091,0.035,0.123,0.05c0.761,0.379,1.566,0.533,2.414,0.488C4.019,18.877,4.068,18.879,4.118,18.879z"/>
	<path fill-rule="evenodd" clip-rule="evenodd" fill="#637405" d="M8.461,31.617c0.021-0.075,0.038-0.13,0.056-0.191
		c0.188-0.011,0.302-0.115,0.372-0.269c0.276,0,0.541,0,0.811,0c0.081,0.151,0.196,0.242,0.375,0.223
		c0.039,0.07,0.075,0.136,0.112,0.196c0.044,0.072,0.064,0.135,0.026,0.227c-0.047,0.107,0.001,0.217,0.092,0.274
		c0.093,0.058,0.197,0.067,0.277-0.008c0.077-0.071,0.147-0.065,0.236-0.045c0.188,0.039,0.378,0.071,0.567,0.104
		c0.006,0,0.01,0.006,0.025,0.019c0.033,0.215,0.161,0.356,0.394,0.402c0.022,0.172,0.046,0.339,0.063,0.503
		c0.002,0.032-0.018,0.07-0.034,0.1c-0.045,0.081-0.094,0.164-0.147,0.256C10.563,32.94,9.489,32.347,8.461,31.617z"/>
	<path fill-rule="evenodd" clip-rule="evenodd" fill="#8FA408" d="M8.83,22.906c-0.086-0.031-0.183-0.043-0.258-0.094
		c-0.484-0.313-0.966-0.636-1.443-0.96c-0.059-0.038-0.096-0.108-0.144-0.165c0.544-0.163,1.087-0.331,1.638-0.501
		c0.025,0.056,0.044,0.094,0.06,0.132c0.123,0.297,0.239,0.596,0.368,0.895c0.038,0.086,0.043,0.156-0.004,0.243
		C8.967,22.602,8.9,22.756,8.83,22.906z"/>
	<path fill-rule="evenodd" clip-rule="evenodd" fill="#637405" d="M16.783,34.01c0.035,0.366,0.063,0.425,0.293,0.611
		c-0.21,0.075-1.979-0.146-2.294-0.286c0.125-0.109,0.18-0.249,0.156-0.425c0.127-0.074,0.255-0.149,0.385-0.218
		c0.027-0.013,0.076-0.016,0.104,0c0.158,0.087,0.297,0.05,0.428-0.059c0.161,0.062,0.315,0.126,0.47,0.189
		C16.479,33.886,16.633,33.948,16.783,34.01z"/>
	<path fill-rule="evenodd" clip-rule="evenodd" fill="#8FA408" d="M14.249,27.225c0.066,0.025,0.131,0.056,0.214,0.086
		C14.326,27.415,14.301,27.289,14.249,27.225z"/>
	<path fill-rule="evenodd" clip-rule="evenodd" fill="#8FA408" d="M13.995,27.17c0.002-0.015,0.002-0.031,0.003-0.046
		c0.036,0.014,0.073,0.028,0.109,0.039c-0.002,0.009-0.004,0.015-0.005,0.023C14.066,27.178,14.031,27.174,13.995,27.17z"/>
	<path fill-rule="evenodd" clip-rule="evenodd" fill="#C6D90C" d="M31.287,10.53c-0.114-0.021-0.201,0.022-0.275,0.111
		c-0.048,0.056-0.109,0.103-0.165,0.151c-0.023,0.019-0.052,0.032-0.101,0.063c-0.146-0.456-0.288-0.898-0.442-1.384
		c0.188,0.054,0.333,0.093,0.479,0.136c0.041,0.013,0.08,0.034,0.122,0.044c0.103,0.028,0.2-0.013,0.237-0.095
		c0.042-0.092,0.008-0.208-0.097-0.249c-0.472-0.192-0.956-0.311-1.474-0.212c-0.315,0.062-0.575,0.227-0.781,0.472
		c-0.137,0.166-0.255,0.349-0.391,0.542c0.112,0.087,0.206,0.162,0.307,0.24c0.109-0.158,0.21-0.305,0.335-0.485
		c0.127,0.391,0.237,0.74,0.351,1.088c-0.012,0.009-0.02,0.017-0.029,0.026c-0.097-0.07-0.199-0.135-0.295-0.208
		c-0.212-0.165-0.416-0.335-0.628-0.499c-0.241-0.186-0.498-0.348-0.79-0.45c-0.404-0.139-0.793-0.104-1.168,0.103
		c-0.308,0.169-0.563,0.401-0.806,0.655c-0.096,0.1-0.099,0.199-0.021,0.279c0.073,0.077,0.188,0.073,0.283-0.013
		c0.112-0.098,0.219-0.2,0.329-0.301c0.088,0.112,0.29,0.721,0.318,0.943c-0.275,0-0.547,0.007-0.819-0.005
		c-0.054-0.002-0.117-0.062-0.162-0.109c-0.35-0.395-0.729-0.761-1.138-1.096c-0.738-0.607-1.547-1.101-2.428-1.475
		c-0.044-0.02-0.089-0.042-0.135-0.064c-0.011-0.004-0.019-0.016-0.034-0.031c0.059-0.112,0.117-0.227,0.18-0.354
		c0.063,0.045,0.111,0.081,0.159,0.117c0.145,0.108,0.285,0.221,0.434,0.324c0.407,0.284,0.852,0.319,1.315,0.177
		c0.333-0.103,0.616-0.293,0.854-0.545c0.016-0.019,0.034-0.037,0.05-0.057c0.057-0.086,0.046-0.193-0.026-0.253
		c-0.073-0.061-0.156-0.062-0.239,0.001c-0.038,0.032-0.07,0.072-0.104,0.105c-0.05,0.042-0.095,0.083-0.141,0.122
		c-0.019,0.015-0.044,0.023-0.089,0.046c-0.142-0.443-0.28-0.875-0.423-1.32c0.141-0.019,0.253,0.044,0.37,0.071
		c0.067,0.016,0.129,0.047,0.196,0.065c0.124,0.034,0.213-0.003,0.249-0.096c0.043-0.102-0.002-0.199-0.125-0.25
		c-0.266-0.109-0.54-0.184-0.825-0.218c-0.34-0.041-0.662,0-0.974,0.154c-0.311,0.155-0.507,0.415-0.682,0.699
		c-0.034,0.058-0.063,0.119-0.1,0.191c0.096,0.065,0.198,0.131,0.31,0.205c0.103-0.146,0.204-0.289,0.328-0.467
		c0.121,0.378,0.229,0.711,0.347,1.086c-0.08-0.039-0.123-0.054-0.159-0.08c-0.154-0.116-0.304-0.238-0.457-0.353
		c-0.222-0.167-0.438-0.346-0.675-0.492c-0.622-0.383-1.18-0.408-1.789,0.029c-0.155,0.112-0.299,0.244-0.443,0.372
		c-0.058,0.052-0.111,0.087-0.197,0.076c-0.494-0.061-0.991-0.076-1.487-0.061c-0.011,0-0.023-0.005-0.063-0.015
		c-0.468-2.174-0.942-4.359-1.42-6.568c0.845-0.114,1.672-0.124,2.5-0.1c0.827,0.025,1.648,0.124,2.46,0.272
		c0.812,0.146,1.597,0.376,2.39,0.656c-0.122,0.197-0.235,0.376-0.359,0.578c0.215,0.166,0.43,0.333,0.647,0.501
		c0.183-0.266,0.358-0.52,0.542-0.784c0.075,0.031,0.137,0.057,0.199,0.08c0.064,0.024,0.099,0.064,0.116,0.132
		c0.17,0.609,0.346,1.217,0.516,1.827c0.009,0.029,0.007,0.06,0.017,0.129c-0.079-0.044-0.137-0.07-0.187-0.108
		c-0.312-0.249-0.619-0.498-0.927-0.751c-0.433-0.352-0.854-0.72-1.296-1.061c-0.39-0.3-0.821-0.536-1.286-0.702
		c-0.76-0.268-1.503-0.23-2.232,0.098c-0.578,0.261-1.074,0.643-1.546,1.061c-0.119,0.107-0.235,0.219-0.353,0.333
		c-0.208,0.204-0.229,0.451-0.058,0.621c0.173,0.173,0.397,0.158,0.61-0.036c0.181-0.163,0.363-0.322,0.546-0.48
		c0.061-0.052,0.128-0.096,0.194-0.145c0.083,0.125,0.65,2.072,0.733,2.519c-0.073-0.006-0.138-0.006-0.2-0.019
		c-0.3-0.058-0.59-0.144-0.868-0.271c-0.051-0.023-0.104-0.045-0.158-0.056c-0.202-0.034-0.376,0.064-0.449,0.249
		c-0.07,0.181-0.004,0.378,0.169,0.484c0.048,0.03,0.098,0.053,0.151,0.075c0.576,0.247,1.182,0.386,1.807,0.377
		c0.799-0.011,1.538-0.222,2.165-0.735c0.314-0.253,0.548-0.575,0.754-0.916C23,4.981,23.146,4.708,23.3,4.437
		c0.031-0.052,0.062-0.104,0.1-0.171c0.221,0.188,0.419,0.375,0.635,0.541c0.315,0.241,0.629,0.486,0.963,0.697
		c0.607,0.38,1.283,0.44,1.979,0.346c0.595-0.083,1.136-0.312,1.637-0.638c0.039-0.026,0.082-0.05,0.142-0.083
		c0.296,0.264,0.592,0.527,0.886,0.79c-0.181,0.272-0.353,0.526-0.532,0.794c0.152,0.115,0.282,0.215,0.408,0.312
		c0.144-0.2,0.273-0.386,0.406-0.572c0.012-0.014,0.034-0.018,0.064-0.033c0.151,0.481,0.305,0.958,0.456,1.434
		c-0.008,0.009-0.018,0.019-0.025,0.027c-0.063-0.04-0.13-0.076-0.188-0.12c-0.364-0.284-0.723-0.572-1.087-0.851
		c-0.361-0.277-0.746-0.512-1.192-0.638c-0.438-0.123-0.86-0.085-1.269,0.102c-0.504,0.229-0.901,0.592-1.275,0.988
		c-0.108,0.116-0.097,0.266,0.012,0.365c0.105,0.094,0.235,0.092,0.354-0.012c0.074-0.066,0.143-0.139,0.214-0.208
		c0.068-0.063,0.141-0.123,0.21-0.183c0.02-0.015,0.042-0.026,0.085-0.054c0.166,0.529,0.331,1.045,0.5,1.576
		c-0.2,0.022-0.362-0.04-0.529-0.087c-0.068-0.021-0.137-0.055-0.208-0.078c-0.145-0.043-0.276,0.014-0.326,0.138
		c-0.054,0.128-0.009,0.275,0.131,0.327c0.227,0.083,0.458,0.162,0.695,0.202c0.52,0.087,1.026,0.035,1.506-0.207
		c0.265-0.135,0.491-0.316,0.655-0.564c0.131-0.196,0.246-0.403,0.363-0.607c0.059-0.102,0.105-0.208,0.169-0.33
		c0.075,0.056,0.136,0.104,0.198,0.151c0.203,0.154,0.403,0.312,0.61,0.459c0.51,0.363,1.072,0.425,1.669,0.282
		c0.037-0.008,0.072-0.017,0.118-0.026c0.099,0.115,0.195,0.233,0.248,0.38c-0.076,0.001-0.096,0.055-0.119,0.117
		c-0.145,0.371-0.292,0.742-0.446,1.109C31.454,10.259,31.365,10.392,31.287,10.53z"/>
	<path fill-rule="evenodd" clip-rule="evenodd" fill="#8FA408" d="M31.287,10.53c0.078-0.138,0.167-0.271,0.228-0.417
		c0.154-0.367,0.302-0.738,0.446-1.109c0.023-0.062,0.043-0.116,0.119-0.117c0.192,0.307,0.402,0.603,0.575,0.92
		c0.264,0.49,0.504,0.996,0.755,1.496c0.024,0.049,0.038,0.102,0.055,0.153c-0.168,0.044-2.141,0.059-3.089,0.024
		c0.075-0.032,0.115-0.054,0.158-0.07c0.286-0.116,0.537-0.283,0.753-0.505C31.436,10.752,31.436,10.69,31.287,10.53z"/>
	<path fill-rule="evenodd" clip-rule="evenodd" fill="#C6D90C" d="M21.258,5.755c-0.303,0.168-0.604,0.267-0.936,0.309
		c-0.282-0.993-0.556-1.97-0.837-2.961c0.301-0.15,0.606-0.238,0.95-0.261C20.71,3.81,20.981,4.773,21.258,5.755z"/>
	<path fill-rule="evenodd" clip-rule="evenodd" fill="#C6D90C" d="M27.412,4.902c-0.329,0.145-0.781,0.208-1.185,0.162
		c-0.177-0.625-0.354-1.259-0.546-1.925c0.069,0.024,0.111,0.034,0.144,0.051c0.407,0.235,0.817,0.47,1.224,0.708
		c0.044,0.026,0.097,0.071,0.109,0.116C27.25,4.31,27.33,4.607,27.412,4.902z"/>
	<path fill-rule="evenodd" clip-rule="evenodd" fill="#C6D90C" d="M21.296,2.923c0.57,0.166,1.024,0.46,1.455,0.797
		c-0.181,0.426-0.613,1.174-0.824,1.414C21.706,4.4,21.513,3.678,21.296,2.923z"/>
	<path fill-rule="evenodd" clip-rule="evenodd" fill="#C6D90C" d="M26.726,6.986c0.198-0.112,0.386-0.17,0.601-0.187
		c0.195,0.613,0.387,1.214,0.58,1.823c-0.175,0.128-0.368,0.18-0.586,0.228C27.122,8.226,26.925,7.608,26.726,6.986z"/>
	<path fill-rule="evenodd" clip-rule="evenodd" fill="#C6D90C" d="M29.9,9.455c0.17,0.532,0.334,1.047,0.504,1.577
		c-0.166,0.109-0.351,0.096-0.555,0.111c-0.162-0.507-0.322-1.01-0.487-1.518C29.524,9.511,29.698,9.482,29.9,9.455z"/>
	<path fill-rule="evenodd" clip-rule="evenodd" fill="#C6D90C" d="M23.938,8.609c-0.2,0.03-0.369,0.054-0.553,0.081
		c-0.163-0.514-0.318-1.006-0.477-1.503c0.163-0.11,0.333-0.151,0.527-0.16C23.598,7.545,23.762,8.056,23.938,8.609z"/>
	<path fill-rule="evenodd" clip-rule="evenodd" fill="#C6D90C" d="M27.495,11.481c-0.173,0-0.32,0-0.49,0
		c-0.122-0.38-0.246-0.768-0.376-1.181c0.149-0.045,0.287-0.088,0.446-0.137C27.218,10.614,27.354,11.041,27.495,11.481z"/>
	<path fill-rule="evenodd" clip-rule="evenodd" fill="#C6D90C" d="M27.876,6.831c0.375,0.097,0.659,0.269,0.95,0.484
		c-0.159,0.303-0.313,0.598-0.466,0.892c-0.017-0.002-0.034-0.003-0.049-0.004C28.171,7.756,28.029,7.311,27.876,6.831z"/>
	<path fill-rule="evenodd" clip-rule="evenodd" fill="#C6D90C" d="M28.137,11.479c0.125-0.229,0.239-0.443,0.369-0.675
		c0.316,0.252,0.61,0.517,0.98,0.675C29.044,11.479,28.598,11.479,28.137,11.479z"/>
	<path fill-rule="evenodd" clip-rule="evenodd" fill="#C6D90C" d="M27.491,10.214c0.277,0.053,0.476,0.195,0.695,0.343
		c-0.107,0.226-0.201,0.449-0.371,0.684C27.703,10.882,27.599,10.562,27.491,10.214z"/>
	<path fill-rule="evenodd" clip-rule="evenodd" fill="#C6D90C" d="M21.513,8.573c-0.178-0.006-0.24-0.096-0.274-0.229
		c-0.049-0.185-0.11-0.364-0.168-0.55c0.187-0.002,0.454,0.13,0.666,0.325c-0.033,0.072-0.067,0.15-0.104,0.228
		C21.596,8.422,21.552,8.499,21.513,8.573z"/>
	<path fill-rule="evenodd" clip-rule="evenodd" fill="#C6D90C" d="M31.482,8.067c-0.138,0.012-0.274,0.024-0.424,0.037
		c-0.102-0.325-0.199-0.632-0.297-0.938c0.014-0.006,0.027-0.014,0.043-0.021c0.232,0.292,0.465,0.583,0.699,0.874
		C31.495,8.034,31.49,8.051,31.482,8.067z"/>
	<path fill-rule="evenodd" clip-rule="evenodd" fill="#C6D90C" d="M20.215,7.852c0.151-0.047,0.286-0.089,0.435-0.136
		c0.071,0.223,0.137,0.426,0.21,0.662c-0.176-0.045-0.323-0.077-0.468-0.123c-0.033-0.01-0.065-0.056-0.078-0.092
		C20.279,8.072,20.251,7.977,20.215,7.852z"/>
	<path fill-rule="evenodd" clip-rule="evenodd" fill="#C6D90C" d="M19.881,8.085c0.009,0.019,0.015,0.035,0.021,0.049
		c-0.016,0.005-0.031,0.014-0.046,0.014c-0.011,0-0.015-0.016-0.024-0.025C19.846,8.112,19.858,8.101,19.881,8.085z"/>
	<path fill-rule="evenodd" clip-rule="evenodd" fill="none" d="M7.134,24.397c0.262,0.234,0.528,0.47,0.788,0.708
		c0.416,0.384,0.802,0.794,1.152,1.244c0.033,0.04,0.065,0.085,0.11,0.147c-0.034,0.009-0.054,0.017-0.075,0.015
		c-0.593-0.025-1.171-0.123-1.715-0.375c-0.698-0.323-1.205-0.842-1.56-1.518c-0.319-0.606-0.486-1.257-0.595-1.928
		c-0.005-0.03-0.001-0.063-0.001-0.105c0.209-0.029,0.411,0.003,0.611,0.035c0.872,0.142,1.616,0.547,2.246,1.16
		c0.55,0.538,0.972,1.156,1.168,1.917c0.019,0.073,0.071,0.141,0.118,0.205c0.363,0.513,0.691,1.044,0.94,1.622
		c0.189,0.438,0.343,0.892,0.41,1.365c0.019,0.138,0.022,0.271,0.004,0.412c-0.018-0.025-0.046-0.054-0.05-0.087
		c-0.057-0.488-0.228-0.949-0.417-1.399c-0.278-0.661-0.634-1.28-1.073-1.849c-0.369-0.479-0.838-0.844-1.334-1.177
		c-0.225-0.153-0.469-0.282-0.704-0.419c-0.019-0.011-0.04-0.021-0.059-0.034c-0.025-0.005-0.05-0.012-0.075-0.014
		c0-0.008,0-0.014-0.003-0.016c-0.002-0.002-0.006-0.002-0.008-0.007c0.004,0.007,0.008,0.013,0.013,0.018
		c0.022,0.022,0.043,0.042,0.066,0.059C7.106,24.385,7.121,24.395,7.134,24.397z"/>
	<path fill-rule="evenodd" clip-rule="evenodd" fill="none" d="M8.376,27.578c-0.633-0.045-1.27-0.084-1.905-0.259
		c0.035-0.034,0.059-0.062,0.09-0.087c0.379-0.272,0.795-0.458,1.266-0.507c0.238-0.026,0.471-0.003,0.702,0.052
		c0.617,0.153,1.104,0.517,1.569,0.949c-0.277,0.235-0.583,0.378-0.914,0.466c-0.319,0.09-0.645,0.112-0.977,0.09
		c-0.289-0.019-0.575-0.046-0.843-0.171c-0.193-0.089-0.382-0.188-0.573-0.283c-0.089-0.047-0.179-0.095-0.274-0.128
		c-0.477-0.163-0.943-0.35-1.366-0.628c-0.175-0.115-0.337-0.253-0.497-0.391c-0.072-0.063-0.124-0.146-0.185-0.219
		C5.615,27.391,6.877,27.903,8.376,27.578z"/>
	<path fill-rule="evenodd" clip-rule="evenodd" fill="none" d="M7.392,29.02c-0.052-0.214-0.104-0.425-0.155-0.638
		c-0.01-0.041-0.013-0.081-0.021-0.133c0.201,0.063,0.397,0.121,0.591,0.186c0.025,0.008,0.046,0.043,0.06,0.065
		c0.375,0.725,0.492,1.468,0.205,2.253c-0.003,0.008-0.011,0.018-0.024,0.044c-0.042-0.022-0.085-0.039-0.125-0.062
		c-0.396-0.237-0.769-0.512-1.048-0.884c-0.129-0.174-0.231-0.365-0.329-0.56c-0.179-0.351-0.167-0.735-0.139-1.117
		c0.008-0.104,0.03-0.203,0.048-0.334c0.094,0.052,0.173,0.114,0.263,0.141c0.229,0.076,0.304,0.268,0.381,0.461
		c0.076,0.193,0.153,0.389,0.229,0.579c0.026,0.086,0.052,0.173,0.078,0.258c0.01-0.002,0.019-0.005,0.028-0.009
		C7.42,29.188,7.407,29.104,7.392,29.02z"/>
	<path fill-rule="evenodd" clip-rule="evenodd" fill="#8FA408" d="M7.392,29.02c0.015,0.085,0.029,0.169,0.042,0.251
		c-0.01,0.004-0.018,0.007-0.028,0.009c-0.026-0.085-0.051-0.172-0.078-0.258C7.35,29.021,7.372,29.02,7.392,29.02z"/>
	<path fill-rule="evenodd" clip-rule="evenodd" fill="none" d="M8.531,6.063c0.289,0.25,0.574,0.498,0.86,0.743
		C9.447,6.853,9.458,6.905,9.444,6.97c-0.067,0.334-0.135,0.667-0.2,1.001C9.23,8.047,9.196,8.087,9.119,8.112
		C8.79,8.222,8.463,8.336,8.137,8.453C8.055,8.481,7.998,8.455,7.939,8.398c-0.146-0.142-0.294-0.28-0.445-0.416
		C7.4,7.896,7.3,7.815,7.203,7.73c-0.05-0.043-0.067-0.094-0.052-0.164c0.07-0.333,0.137-0.667,0.202-1
		c0.013-0.066,0.03-0.114,0.101-0.138C7.813,6.31,8.169,6.187,8.531,6.063z"/>
	<path fill-rule="evenodd" clip-rule="evenodd" fill="none" d="M11.111,6.166c-0.321,0.11-0.643,0.22-0.982,0.336
		C9.874,6.278,9.613,6.051,9.345,5.818C9.407,5.5,9.469,5.185,9.528,4.869C9.541,4.802,9.586,4.779,9.64,4.76
		c0.264-0.09,0.527-0.178,0.792-0.27c0.073-0.025,0.128-0.013,0.186,0.04c0.203,0.182,0.409,0.361,0.616,0.538
		c0.048,0.043,0.086,0.083,0.07,0.157C11.238,5.535,11.176,5.845,11.111,6.166z"/>
	<path fill-rule="evenodd" clip-rule="evenodd" fill="none" d="M9.326,9.23c0.01-0.069,0.013-0.105,0.02-0.142
		c0.048-0.244,0.099-0.487,0.145-0.73c0.016-0.079,0.042-0.133,0.127-0.161c0.261-0.083,0.519-0.172,0.776-0.265
		c0.081-0.029,0.138-0.014,0.202,0.042c0.198,0.178,0.4,0.354,0.604,0.527c0.063,0.054,0.088,0.108,0.07,0.193
		c-0.056,0.26-0.107,0.523-0.158,0.785c-0.016,0.084-0.052,0.138-0.144,0.167c-0.255,0.079-0.508,0.166-0.758,0.258
		c-0.082,0.03-0.138,0.018-0.201-0.038C9.811,9.687,9.607,9.514,9.407,9.336C9.371,9.302,9.345,9.255,9.326,9.23z"/>
	<path fill-rule="evenodd" clip-rule="evenodd" fill="none" d="M13.469,3.813c0.14,0.64,0.273,1.258,0.411,1.893
		c-0.259,0.091-0.515,0.178-0.788,0.272c-0.261-0.264-0.61-0.434-0.837-0.745c0.062-0.319,0.125-0.635,0.186-0.952
		c0.014-0.074,0.035-0.136,0.124-0.164C12.859,4.023,13.151,3.921,13.469,3.813z"/>
	<path fill-rule="evenodd" clip-rule="evenodd" fill="none" d="M7.539,9.073c0.242-0.083,0.47-0.16,0.697-0.241
		C8.308,8.808,8.364,8.817,8.422,8.87c0.157,0.143,0.315,0.281,0.477,0.417c0.06,0.05,0.083,0.102,0.067,0.178
		c-0.043,0.213-0.084,0.426-0.125,0.639c-0.013,0.068-0.05,0.105-0.118,0.127c-0.166,0.051-0.329,0.11-0.494,0.167
		c-0.067,0.024-0.134,0.055-0.205,0.085c-0.208-0.185-0.42-0.372-0.646-0.572C7.431,9.642,7.483,9.362,7.539,9.073z"/>
	<path fill-rule="evenodd" clip-rule="evenodd" fill="none" d="M6.503,8.729C6.241,8.819,5.979,8.91,5.715,9
		C5.522,8.833,5.339,8.667,5.147,8.511c-0.08-0.065-0.062-0.138-0.049-0.218c0.041-0.227,0.081-0.455,0.122-0.68
		c0.156-0.058,0.312-0.116,0.468-0.173C5.724,7.432,5.76,7.426,5.796,7.416C6.1,7.318,6.001,7.306,6.248,7.511
		c0.147,0.124,0.288,0.253,0.438,0.386C6.624,8.177,6.564,8.454,6.503,8.729z"/>
	<path fill-rule="evenodd" clip-rule="evenodd" fill="none" d="M12.32,7.146c-0.056,0.283-0.105,0.536-0.157,0.793
		c-0.232,0.081-0.459,0.159-0.685,0.239c-0.066,0.024-0.118,0.008-0.169-0.038c-0.152-0.138-0.305-0.273-0.462-0.406
		c-0.054-0.046-0.068-0.097-0.056-0.164c0.042-0.207,0.076-0.415,0.124-0.62c0.011-0.043,0.06-0.095,0.103-0.113
		c0.204-0.077,0.408-0.147,0.615-0.209c0.04-0.013,0.103,0.001,0.133,0.027C11.955,6.815,12.138,6.982,12.32,7.146z"/>
	<path fill-rule="evenodd" clip-rule="evenodd" fill="none" d="M4.835,14.134c0,0.703-0.58,1.176-1.169,1.168
		c-0.644-0.007-1.157-0.518-1.161-1.162c-0.003-0.649,0.518-1.182,1.164-1.176C4.332,12.969,4.831,13.507,4.835,14.134z"/>
	<path fill-rule="evenodd" clip-rule="evenodd" fill="#C6D90C" d="M7.093,24.378c-0.022-0.017-0.044-0.036-0.066-0.059l-0.002,0.005
		c0.024,0.002,0.049,0.009,0.075,0.014C7.098,24.354,7.095,24.363,7.093,24.378z"/>
	<path fill-rule="evenodd" clip-rule="evenodd" fill="#C6D90C" d="M7.027,24.319c-0.005-0.005-0.009-0.011-0.013-0.018
		c0.002,0.005,0.006,0.005,0.008,0.007c0.002,0.002,0.002,0.008,0.003,0.016L7.027,24.319z"/>
	<path fill-rule="evenodd" clip-rule="evenodd" fill="#637405" d="M7.093,24.378c0.002-0.015,0.005-0.024,0.007-0.04
		c0.019,0.013,0.04,0.023,0.059,0.034c-0.008,0.01-0.015,0.017-0.024,0.025C7.121,24.395,7.106,24.385,7.093,24.378z"/>
</g>
</svg>
