<?xml version="1.0" encoding="utf-8"?>
<!-- Generator: Adobe Illustrator 16.0.0, SVG Export Plug-In . SVG Version: 6.00 Build 0)  -->
<!DOCTYPE svg PUBLIC "-//W3C//DTD SVG 1.1//EN" "http://www.w3.org/Graphics/SVG/1.1/DTD/svg11.dtd">
<svg version="1.1" id="Layer_1" xmlns="http://www.w3.org/2000/svg" xmlns:xlink="http://www.w3.org/1999/xlink" x="0px" y="0px"
	 width="36px" height="36px" viewBox="0 0 36 36" enable-background="new 0 0 36 36" xml:space="preserve">
<path fill-rule="evenodd" clip-rule="evenodd" fill="#0089C1" d="M34.443,7.64c-0.003,3.938-3.008,7.126-6.944,7.372
	c-0.482,0.03-0.976,0.037-1.445,0.142c-1.167,0.263-1.96,0.981-2.258,2.153c-0.534,2.11,1.073,3.53,2.834,3.636
	c0.884,0.053,1.786,0.146,2.636,0.382c1.729,0.479,3.053,1.536,4.018,3.065c0.78,1.235,1.181,2.566,1.159,4.016
	c-0.055,3.602-2.486,6.649-6.147,7.299c-4.728,0.837-8.99-2.91-8.745-7.701c0.066-1.308,0.555-2.491,1.151-3.636
	c0.646-1.238,0.491-2.567-0.422-3.531c-1.099-1.158-3.016-1.316-4.13-0.033c-0.407,0.471-0.764,0.986-1.133,1.489
	c-0.891,1.215-1.995,2.17-3.421,2.688C7.14,26.6,2.465,23.852,1.657,19.154c-0.674-3.916,2.127-7.87,6.046-8.481
	c3.465-0.54,6.037,0.848,7.856,3.767c0.48,0.77,1.123,1.312,2.019,1.525c1.52,0.363,3.164-0.618,3.466-2.142
	c0.151-0.759,0.039-1.527-0.352-2.236c-0.651-1.189-1.104-2.446-1.154-3.82c-0.136-3.677,2.766-7.073,6.415-7.522
	c1.288-0.159,2.534-0.039,3.744,0.434c1.019,0.399,1.929,0.971,2.663,1.78C33.548,3.768,34.427,5.248,34.443,7.64z"/>
</svg>
